<mxfile host="app.diagrams.net" modified="2023-10-31T07:59:25.403Z" agent="Mozilla/5.0 (Windows NT 10.0; Win64; x64) AppleWebKit/537.36 (KHTML, like Gecko) Chrome/118.0.0.0 Whale/3.23.214.10 Safari/537.36" etag="HHcOE9mLMLoI96odz6_l" version="22.0.8" type="github">
  <diagram name="페이지-1" id="kwoGzYAiI16UahFyLS35">
    <mxGraphModel dx="1207" dy="657" grid="1" gridSize="10" guides="1" tooltips="1" connect="1" arrows="1" fold="1" page="1" pageScale="1" pageWidth="1169" pageHeight="827" math="0" shadow="0">
      <root>
        <mxCell id="0" />
        <mxCell id="1" parent="0" />
        <mxCell id="-DjrFjEzPPp2w2y8W-10-13" value="" style="shape=image;verticalLabelPosition=top;labelBackgroundColor=none;verticalAlign=bottom;imageAspect=0;image=data:image/png,iVBORw0KGgoAAAANSUhEUgAAADEAAABBCAYAAAB4vkzdAAAAAXNSR0IArs4c6QAAAARnQU1BAACxjwv8YQUAAAAJcEhZcwAAFxEAABcRAcom8z8AABAISURBVGhD3Vr5W1RXts3/1d3pTr+0Q8wLJmocYhyjcWhHjE00toqKrQZiiCYaHEERFVSmKCDIDMqMzCBDAQUyyDwPu9falwtFWVWUgO+Hd75vf1Ui3LvWHtbZ+9z7gfw/WP8nJIaGBqW+vk4aGuqls7NDRkaGJ/5nftZ7J1FXVyOBgcGybt23smnTTjl9+icJCXkoqamZUlxcrOQ6OtplbGxk4i/efb03Ej09XZKQkCDbt3vKV1/tl59+CpFLlx7JiRNXZO/eU7Jq1T/ls8/Wy44d34mPj58EB4dKYmKKZGVlS01NtXR3d05caeb1XkgUFOSJn99FgNwghw/7S0REsrx+3S69vT1IqRbJzy+RmJg0uXUrBuQC5cgRX9myxUtJLVy4EsQPyJkz/vj/+xIXFy8vXmRLbW0N/r574g7T17ySYGrcvh0sGzfulg0bvCQo6ImUllbJwEAfItMtb968gYe7AaZXBgf71ZhKBJiVVQBiqfibKPH1vSoHDvjImjW7ZMGCFbJ06UbZtcsLxM4jNe8gFTMm7miseSExPj4mjx9Hw+s+4uGxBXl/RdLS8gG6U/r6eqW9vd2pdXV1gWCP9Pf3oeCHQKwPf9cuVVW1kpGRi+smyc2bYXLq1M+ye/e/kYbbkJ7bJTPzOepoTO8/ZxIlJcVInQvw/AHZv99XoqPTUcz1ANULL3cAaNtbwJ1ZW5vxuyTG1BsY6Jfh4UFcqwc/b5HCwnLx9w9ChHaIt7e3EueaNYnu7i65ciUARfpvXPSABAQ8xE0qAKBTAdgDfDcjGYMQU5CyXFhYitpKQQ3dkq+/3i5eXl6KgWtWJBITn8nBg8eQ+/9CUV6S5OR8FGwjLtqLm3bBo50AMHdjJBsbmyUpKQ+yHAunRSHqgZDrHXLo0OHZkbBaGyGHp6EkB2XnTh958CAVuWuR1tYWtaam5nmx5ubXcEQXRKFOoqLSoVKxcufOUxCJl/Png2ZHgrl579492bbNE+Yt587dhkxWQjY7cMNWqJIVddA4Z7NYGvVaFks9irpEwsKSoFYx2EPilACJvDOJ4eEhaH6B7NnjidT5Tr7//gJkMAc3oddbEerXuDkJzN0slia18vJaFQcCvn3biIAZhfv3n8nPP7Mm3CIxDpBW+fXX3yFnO8XT008uXw6FElXDU83IfwN8bS096BiUu2axWHHNJqmubpTs7DJ4P1HBm9437e7dBAkNTbQhccg5iY6ON9gln6LP2Y68Pyk//hgMTS4FYONmNTWNuGHDvBidwGuWldVKfHyuAiUBEzjTybQHD5L10yRx+PCRt0mws3z58iX096ysXLkLn9cR1gwFTe/zho6AzNZ4vVevGrBTl8LDSQqanjY8PgXelsTDhykTNbFTjh71AYkexa4kqDpBQSHy5Zdbofs/yu+/R0peXpXmKMNcVVU/b0bgTKHSUno/B5430sYeNImQFL8TfHh4KpyaqZF4i0R/fz+03lvWrt0HDb6LzjMHN6PXG1FkdQj1/Fl5uQWfFs39P/7IRMEauT4dvAH80aMUWCrAp+F3n8uTJy8mSaxf/8/pJKzWJlm9ertcuHAPHmqBZLYp+IKCKqRXtWq1AcAwe2DuWmVlvV4vISHXYc5PgZ8C/vjxCzXzO0mw612z5pvpJBobG9H3eEINYvQHg4PDKO5upFibRoRFV1j4Sq2oqGaSzExmgqf3Kyrq5fnzUgVBubT3Po3pEhGRPgmYn9ONJJ7Lb7/dkWXLvkb2nLInsR818RjFbXSF5hoaGkEv1ItN7Q3Sq0mJMEL8pFdJypkVF9cAvAWyXIc2JQ8an+jU+xERU563B0/i5venT3O1o122bIOSYPfL5ZKE7RoeHgXzPu2L6upeK4nc3EoIQCV27yqQe4VPw/i9sLAaw0yZgqDm37v3tvcJPjIyYxpo0+h1fsbF5YDcc5XgpKRCuXFjDiRs18jIKOaEAaRdD+S3Vb3OdCEhgmeknj3LV4Vh38Od1p5AZKSr1DG8Hh+fhygWoI7ylAC/zxsJ2zU6OobeahBp14c6ateo0MNMHcqnmTKmUe+deZ+E6HGCJuCkpILJT5IwIhEqK1asA4mT7tXEu67x8XH0U20TBGKnESD4qKiMaTluT8AevK1NkQiT5ctdRIJe5WLecy5gHbzramnpUPD37k2lkEnAFXimnz1wW7Ml4TKdxsbG1ZuxsSly8uQNlcOCgkoMKF1ImSH9v5kWlYwkzDowCDj3/pMnWW4RSE5+CTPSaenS1fLDDyddk4iOTpLvvruADeWynDlzE93sA9yUh13VGqH+/qHJId1c5r/NSJgk2DI4SiF3wZtGEpwxSMLDY5VzEqOjhqep7deuRWFjCcU2f187WfZTVBp6lh4pLa3RCPX3D6pajY2NqgOamtoUPEmwdXBEICbGNQFb8CaBlJQid0g80ZpgxnR28pyoXye33NwKhD0DqWU0alScR4+4OVFJ8lRWh4aGNRKjo6Pa9RL8gwcpb4E3CGQ7BG6aPYGUFCMCHAdmJHHrVpSmEy0uLgs74xNcoBBdpxVSxkOubt212TqnphaiGPNROzmSnl6MVmVICYyMjCgJthD2hWxGxFkEHIE3CbhBwoqucB/SJWQiEuPQ+aeY5vzFy+tXpNId7XXS0l4CoFV6e0moS6W0spKdbv0kieHhYackYmOzdfd1h0RqqpE6tjYjiXXr9umwMTxsnEzzkIrHIz4+N+TUqety7lywXLwYptGJjc3SFGtoaEXa9WjaDQ0NqTkjQRUygdqDN3/uigBtxnRau3YnCjhIGz5GgqlDFWL3mZKSD4VJ1v4nMDBGZZftRFxcrl60rKxed+zBwQF8DkzWhEnCVRrZgndFgGaSYAPoUGK/+upbJUGVIQmmTkhIHFQhH6CatcDZmpeU1GidsBbo3adP83DhYqRYH0jwuLFfx04Cpxm/k6OtxEwE0tKKp4G2N5JITzcisWTJMpA4YU9i2zQSlMADBy7KsWMBkNpoeDYZBV0GgM2IEHfzbi149kkcY3t6etEQ9qmRBBXIJJGYmK8g50KA9vx5meTkVCASobJwoYc9CatG4vz561oTLO7s7HI5ezYIRX0bk9RdCQiIUAmm/sfFvdBWu7a2SSPEeYMX45E9P5lO3MiYQmYXam+2BKhujkDbG0lwlgkMDJNFi5Y6I3FVc5ua39PTp4djubnlWsjcuKYmMqON4IbHC1dWNugpNuuoq4sRqtd5mCQYBVcEaI4A21tmZgkibswpM5Lo7x+YUBruwsOa4319/WgIO1DkdbhYscokwTEFWIhMqc7OLk0x7uA80WA6ch6wJ2BPgjnuCLStcU7h8MXs4L3cJsFzf+OJTg+sV41keOpNQnV1PG606HTHPDXrhIfAJMFIOOqNbAkwko5A2xojTQKcEM2JcUYSVBkWJ9PCNAKjtbfT05Rew+P8WWtrpx6s8ZP/Z5JgJLij2xKwJ+EItL3RQQYBzvXVNiScFvZV/JBe5xxtgHTHTEKmOSNhS8DsSF0ZwdtGwBh7q6FO96FOi+TwYW/Fa0Nim5Jgbnd0MGWmA3sXc4eEI9DTrRhRqFTwppEAz8CCgx++fxI8ppkriaysct2XzCjQeAzE08Pw8BhZvPiT90PCTCuesc6FBOXUPgokQCHhKSJJLFiwUA4dckKio4PPyd6dhFnw/O6IhC0BV/0Rzdj8iqdFgWnEPo4P8qOjY+Sjjz4CieOOSFwDkA6Q6HkLpCMz1YrfrdZW3Rz5nTd0RcIRcNMYhezsClUlkwDJMAo830pLy5E9e/aAxAKo01HbIxurrFnzrZw+/ase5Xd28gkoH+FOgXQGvLGxRZ8asV/iQxh+LylxHQlH4E0jiYICQ4VMEpxX2KcFB4fA2evlz39eALybILWBuqdNkqDEHjt2HqF+ic3F0GQe7RMoc91MFRO07eMumvnoit+ZTtzknj2bXT3YSmpxsUVnl6NHj6OYF8vf/rZEdu3yxCgQJi0tLUqAa5LE8eM/4yYFmrO8sZG7xdqlVlU1KHAex5iAnRlJcDeeC4miolp0AzXo056o95k+nCFOn/bF3vECPV7/BHxjTZLw9vZXWeMGw+Iye6O0NJLhQGJoN1sN43HVFHA++bElQbCzIcE2g97Pzi4F4PPw/qcg8Il8880uuX07BJnQoKOC/ZpGgl0rw8ht3pwV6B3egMRoHE7M3ZQHx3wGwdQjsZqaBvx7dpHIyqKs1qD7TZUtW7YB/McYflYhlU7gGonaDjlbkyROnPBHGF+plJGIaYZCGKRMY92QHAmxyzQJsaiLiqoVuLskMjM57LzCZ7FcvnwTwD3k44+XyPr12+Xq1etI5crJgzlna5LEf/7jDyWo1bbB/mmPLSlbsyXGfp/pQGA82bDtYG1J2A5BL15wZ66QyMgE2bfvX/KXv/xdPv10hRw8eAQt/1PtpN1Z00iYuW4+pjXIWN4yV+SYgq4OBRITGY1SeL8K3/Pl0qXr8sUXy+XDD/8O6dwqv/xyEXX3ckbv265JEmfPXpjYtNomZdRiadY8N0mZxv7ImZGEs1mCBCgYeXnVmA6T4fGj8te//g8K+AvZu/d7RCRymnS6uz7gKz70ANWAJ9+csc3Wg3NCY6OxqdkaidE4HHGD5P5g/oy14YxEZmY5UqhSbty4Kxs3bkX6/ENWrlwvZ874gliuniDOZn3AF6M8PNbKtm370ZfEIZRlIMBXPMdx0THkJcdTEprauRktq7VF6qoapaKoThrq2qS5+Y1G0tmOTfA80z1+/ByGmiUo3k/0hcWQkLuIev0EnNmtD5h7AQE3ZcWKDQitBzy0V86d85f798Nx4xyAboM28+heMDDxOR128PYesb5uleup1+RB3kVJL4kVS229tLd1a0rZkuAAlJlZAZ0Pl82bd8if/vSRblze3mfw8wyX0unu0tcieCz/7FmyXLhwWbf1xYtXoND+V1av3gqdPgnpuyIpKcn6Ypa5evsGJKosQo4Ub5ZN6Qvkj+xoaW3pREpZlQTTKT29FEQKxcfHVz7/fBWcxI1rp1y7dgOpWDtxpbmvaW/Z8JTDYqkD4DS5fj1IPD29sOkshvcWgtAmFOIP4ufnD/mLlZbXBqHSvjKJa4uW6ja+kNsLEo16QpicXCR37vwhO3bsReosgmOW6wwQHx+P2d39F3fdWW+9KmQuHtnQW76+fhohvk/x4YeLUIyLIImrsKvuQJROSWxUnHRYp0Cxdnh06ed3WZYvp/cXQP2+kd9+C8BQU6Gn5/O9nJLgYr1ERETAu/VofcP1DbSwsHCkxxn58st1iNKnEIUVsnbtRmxW+/QVu9TUNNm9+yDm4M9gyzSaERGRqKU3E1ed/+WSBE+5w8PDVWZ5HuvtfQLFzeP8HvT4NUirBMjjOVm3bitGxqVoGT6H99foWenKlZsQjV+wm+dP9v3va81I4tGjR7rphYYmYOaYeqHWXHwm8Rr1kZ6eoam3efMeyDWjch/K1jrxW+9zifwXMuX2k4SuPWQAAAAASUVORK5CYII=;fontSize=10;labelPosition=center;align=center;" vertex="1" parent="1">
          <mxGeometry width="30" height="40" as="geometry" />
        </mxCell>
        <mxCell id="-DjrFjEzPPp2w2y8W-10-3" value="" style="rounded=0;whiteSpace=wrap;html=1;fillColor=none;" vertex="1" parent="1">
          <mxGeometry x="160" y="280" width="360" height="170" as="geometry" />
        </mxCell>
        <mxCell id="-DjrFjEzPPp2w2y8W-10-1" value="Main Zone" style="rounded=0;whiteSpace=wrap;html=1;fillColor=#000075;fontColor=#ffffff;fontStyle=1;fontSize=16;" vertex="1" parent="1">
          <mxGeometry x="160" y="280" width="360" height="40" as="geometry" />
        </mxCell>
        <mxCell id="-DjrFjEzPPp2w2y8W-10-12" value="IaaS Control" style="rounded=1;whiteSpace=wrap;html=1;dashed=1;dashPattern=1 1;strokeWidth=2;strokeColor=#EA6B66;fillColor=none;labelPosition=center;verticalLabelPosition=top;align=center;verticalAlign=bottom;" vertex="1" parent="1">
          <mxGeometry x="200" y="340" width="120" height="100" as="geometry" />
        </mxCell>
        <mxCell id="-DjrFjEzPPp2w2y8W-10-21" value="" style="shape=image;verticalLabelPosition=top;labelBackgroundColor=none;verticalAlign=bottom;imageAspect=0;image=data:image/png,iVBORw0KGgoAAAANSUhEUgAAADEAAABBCAYAAAB4vkzdAAAAAXNSR0IArs4c6QAAAARnQU1BAACxjwv8YQUAAAAJcEhZcwAAFxEAABcRAcom8z8AABAISURBVGhD3Vr5W1RXts3/1d3pTr+0Q8wLJmocYhyjcWhHjE00toqKrQZiiCYaHEERFVSmKCDIDMqMzCBDAQUyyDwPu9falwtFWVWUgO+Hd75vf1Ui3LvWHtbZ+9z7gfw/WP8nJIaGBqW+vk4aGuqls7NDRkaGJ/5nftZ7J1FXVyOBgcGybt23smnTTjl9+icJCXkoqamZUlxcrOQ6OtplbGxk4i/efb03Ej09XZKQkCDbt3vKV1/tl59+CpFLlx7JiRNXZO/eU7Jq1T/ls8/Wy44d34mPj58EB4dKYmKKZGVlS01NtXR3d05caeb1XkgUFOSJn99FgNwghw/7S0REsrx+3S69vT1IqRbJzy+RmJg0uXUrBuQC5cgRX9myxUtJLVy4EsQPyJkz/vj/+xIXFy8vXmRLbW0N/r574g7T17ySYGrcvh0sGzfulg0bvCQo6ImUllbJwEAfItMtb968gYe7AaZXBgf71ZhKBJiVVQBiqfibKPH1vSoHDvjImjW7ZMGCFbJ06UbZtcsLxM4jNe8gFTMm7miseSExPj4mjx9Hw+s+4uGxBXl/RdLS8gG6U/r6eqW9vd2pdXV1gWCP9Pf3oeCHQKwPf9cuVVW1kpGRi+smyc2bYXLq1M+ye/e/kYbbkJ7bJTPzOepoTO8/ZxIlJcVInQvw/AHZv99XoqPTUcz1ANULL3cAaNtbwJ1ZW5vxuyTG1BsY6Jfh4UFcqwc/b5HCwnLx9w9ChHaIt7e3EueaNYnu7i65ciUARfpvXPSABAQ8xE0qAKBTAdgDfDcjGYMQU5CyXFhYitpKQQ3dkq+/3i5eXl6KgWtWJBITn8nBg8eQ+/9CUV6S5OR8FGwjLtqLm3bBo50AMHdjJBsbmyUpKQ+yHAunRSHqgZDrHXLo0OHZkbBaGyGHp6EkB2XnTh958CAVuWuR1tYWtaam5nmx5ubXcEQXRKFOoqLSoVKxcufOUxCJl/Png2ZHgrl579492bbNE+Yt587dhkxWQjY7cMNWqJIVddA4Z7NYGvVaFks9irpEwsKSoFYx2EPilACJvDOJ4eEhaH6B7NnjidT5Tr7//gJkMAc3oddbEerXuDkJzN0slia18vJaFQcCvn3biIAZhfv3n8nPP7Mm3CIxDpBW+fXX3yFnO8XT008uXw6FElXDU83IfwN8bS096BiUu2axWHHNJqmubpTs7DJ4P1HBm9437e7dBAkNTbQhccg5iY6ON9gln6LP2Y68Pyk//hgMTS4FYONmNTWNuGHDvBidwGuWldVKfHyuAiUBEzjTybQHD5L10yRx+PCRt0mws3z58iX096ysXLkLn9cR1gwFTe/zho6AzNZ4vVevGrBTl8LDSQqanjY8PgXelsTDhykTNbFTjh71AYkexa4kqDpBQSHy5Zdbofs/yu+/R0peXpXmKMNcVVU/b0bgTKHSUno/B5430sYeNImQFL8TfHh4KpyaqZF4i0R/fz+03lvWrt0HDb6LzjMHN6PXG1FkdQj1/Fl5uQWfFs39P/7IRMEauT4dvAH80aMUWCrAp+F3n8uTJy8mSaxf/8/pJKzWJlm9ertcuHAPHmqBZLYp+IKCKqRXtWq1AcAwe2DuWmVlvV4vISHXYc5PgZ8C/vjxCzXzO0mw612z5pvpJBobG9H3eEINYvQHg4PDKO5upFibRoRFV1j4Sq2oqGaSzExmgqf3Kyrq5fnzUgVBubT3Po3pEhGRPgmYn9ONJJ7Lb7/dkWXLvkb2nLInsR818RjFbXSF5hoaGkEv1ItN7Q3Sq0mJMEL8pFdJypkVF9cAvAWyXIc2JQ8an+jU+xERU563B0/i5venT3O1o122bIOSYPfL5ZKE7RoeHgXzPu2L6upeK4nc3EoIQCV27yqQe4VPw/i9sLAaw0yZgqDm37v3tvcJPjIyYxpo0+h1fsbF5YDcc5XgpKRCuXFjDiRs18jIKOaEAaRdD+S3Vb3OdCEhgmeknj3LV4Vh38Od1p5AZKSr1DG8Hh+fhygWoI7ylAC/zxsJ2zU6OobeahBp14c6ateo0MNMHcqnmTKmUe+deZ+E6HGCJuCkpILJT5IwIhEqK1asA4mT7tXEu67x8XH0U20TBGKnESD4qKiMaTluT8AevK1NkQiT5ctdRIJe5WLecy5gHbzramnpUPD37k2lkEnAFXimnz1wW7Ml4TKdxsbG1ZuxsSly8uQNlcOCgkoMKF1ImSH9v5kWlYwkzDowCDj3/pMnWW4RSE5+CTPSaenS1fLDDyddk4iOTpLvvruADeWynDlzE93sA9yUh13VGqH+/qHJId1c5r/NSJgk2DI4SiF3wZtGEpwxSMLDY5VzEqOjhqep7deuRWFjCcU2f187WfZTVBp6lh4pLa3RCPX3D6pajY2NqgOamtoUPEmwdXBEICbGNQFb8CaBlJQid0g80ZpgxnR28pyoXye33NwKhD0DqWU0alScR4+4OVFJ8lRWh4aGNRKjo6Pa9RL8gwcpb4E3CGQ7BG6aPYGUFCMCHAdmJHHrVpSmEy0uLgs74xNcoBBdpxVSxkOubt212TqnphaiGPNROzmSnl6MVmVICYyMjCgJthD2hWxGxFkEHIE3CbhBwoqucB/SJWQiEuPQ+aeY5vzFy+tXpNId7XXS0l4CoFV6e0moS6W0spKdbv0kieHhYackYmOzdfd1h0RqqpE6tjYjiXXr9umwMTxsnEzzkIrHIz4+N+TUqety7lywXLwYptGJjc3SFGtoaEXa9WjaDQ0NqTkjQRUygdqDN3/uigBtxnRau3YnCjhIGz5GgqlDFWL3mZKSD4VJ1v4nMDBGZZftRFxcrl60rKxed+zBwQF8DkzWhEnCVRrZgndFgGaSYAPoUGK/+upbJUGVIQmmTkhIHFQhH6CatcDZmpeU1GidsBbo3adP83DhYqRYH0jwuLFfx04Cpxm/k6OtxEwE0tKKp4G2N5JITzcisWTJMpA4YU9i2zQSlMADBy7KsWMBkNpoeDYZBV0GgM2IEHfzbi149kkcY3t6etEQ9qmRBBXIJJGYmK8g50KA9vx5meTkVCASobJwoYc9CatG4vz561oTLO7s7HI5ezYIRX0bk9RdCQiIUAmm/sfFvdBWu7a2SSPEeYMX45E9P5lO3MiYQmYXam+2BKhujkDbG0lwlgkMDJNFi5Y6I3FVc5ua39PTp4djubnlWsjcuKYmMqON4IbHC1dWNugpNuuoq4sRqtd5mCQYBVcEaI4A21tmZgkibswpM5Lo7x+YUBruwsOa4319/WgIO1DkdbhYscokwTEFWIhMqc7OLk0x7uA80WA6ch6wJ2BPgjnuCLStcU7h8MXs4L3cJsFzf+OJTg+sV41keOpNQnV1PG606HTHPDXrhIfAJMFIOOqNbAkwko5A2xojTQKcEM2JcUYSVBkWJ9PCNAKjtbfT05Rew+P8WWtrpx6s8ZP/Z5JgJLij2xKwJ+EItL3RQQYBzvXVNiScFvZV/JBe5xxtgHTHTEKmOSNhS8DsSF0ZwdtGwBh7q6FO96FOi+TwYW/Fa0Nim5Jgbnd0MGWmA3sXc4eEI9DTrRhRqFTwppEAz8CCgx++fxI8ppkriaysct2XzCjQeAzE08Pw8BhZvPiT90PCTCuesc6FBOXUPgokQCHhKSJJLFiwUA4dckKio4PPyd6dhFnw/O6IhC0BV/0Rzdj8iqdFgWnEPo4P8qOjY+Sjjz4CieOOSFwDkA6Q6HkLpCMz1YrfrdZW3Rz5nTd0RcIRcNMYhezsClUlkwDJMAo830pLy5E9e/aAxAKo01HbIxurrFnzrZw+/ase5Xd28gkoH+FOgXQGvLGxRZ8asV/iQxh+LylxHQlH4E0jiYICQ4VMEpxX2KcFB4fA2evlz39eALybILWBuqdNkqDEHjt2HqF+ic3F0GQe7RMoc91MFRO07eMumvnoit+ZTtzknj2bXT3YSmpxsUVnl6NHj6OYF8vf/rZEdu3yxCgQJi0tLUqAa5LE8eM/4yYFmrO8sZG7xdqlVlU1KHAex5iAnRlJcDeeC4miolp0AzXo056o95k+nCFOn/bF3vECPV7/BHxjTZLw9vZXWeMGw+Iye6O0NJLhQGJoN1sN43HVFHA++bElQbCzIcE2g97Pzi4F4PPw/qcg8Il8880uuX07BJnQoKOC/ZpGgl0rw8ht3pwV6B3egMRoHE7M3ZQHx3wGwdQjsZqaBvx7dpHIyqKs1qD7TZUtW7YB/McYflYhlU7gGonaDjlbkyROnPBHGF+plJGIaYZCGKRMY92QHAmxyzQJsaiLiqoVuLskMjM57LzCZ7FcvnwTwD3k44+XyPr12+Xq1etI5crJgzlna5LEf/7jDyWo1bbB/mmPLSlbsyXGfp/pQGA82bDtYG1J2A5BL15wZ66QyMgE2bfvX/KXv/xdPv10hRw8eAQt/1PtpN1Z00iYuW4+pjXIWN4yV+SYgq4OBRITGY1SeL8K3/Pl0qXr8sUXy+XDD/8O6dwqv/xyEXX3ckbv265JEmfPXpjYtNomZdRiadY8N0mZxv7ImZGEs1mCBCgYeXnVmA6T4fGj8te//g8K+AvZu/d7RCRymnS6uz7gKz70ANWAJ9+csc3Wg3NCY6OxqdkaidE4HHGD5P5g/oy14YxEZmY5UqhSbty4Kxs3bkX6/ENWrlwvZ874gliuniDOZn3AF6M8PNbKtm370ZfEIZRlIMBXPMdx0THkJcdTEprauRktq7VF6qoapaKoThrq2qS5+Y1G0tmOTfA80z1+/ByGmiUo3k/0hcWQkLuIev0EnNmtD5h7AQE3ZcWKDQitBzy0V86d85f798Nx4xyAboM28+heMDDxOR128PYesb5uleup1+RB3kVJL4kVS229tLd1a0rZkuAAlJlZAZ0Pl82bd8if/vSRblze3mfw8wyX0unu0tcieCz/7FmyXLhwWbf1xYtXoND+V1av3gqdPgnpuyIpKcn6Ypa5evsGJKosQo4Ub5ZN6Qvkj+xoaW3pREpZlQTTKT29FEQKxcfHVz7/fBWcxI1rp1y7dgOpWDtxpbmvaW/Z8JTDYqkD4DS5fj1IPD29sOkshvcWgtAmFOIP4ufnD/mLlZbXBqHSvjKJa4uW6ja+kNsLEo16QpicXCR37vwhO3bsReosgmOW6wwQHx+P2d39F3fdWW+9KmQuHtnQW76+fhohvk/x4YeLUIyLIImrsKvuQJROSWxUnHRYp0Cxdnh06ed3WZYvp/cXQP2+kd9+C8BQU6Gn5/O9nJLgYr1ERETAu/VofcP1DbSwsHCkxxn58st1iNKnEIUVsnbtRmxW+/QVu9TUNNm9+yDm4M9gyzSaERGRqKU3E1ed/+WSBE+5w8PDVWZ5HuvtfQLFzeP8HvT4NUirBMjjOVm3bitGxqVoGT6H99foWenKlZsQjV+wm+dP9v3va81I4tGjR7rphYYmYOaYeqHWXHwm8Rr1kZ6eoam3efMeyDWjch/K1jrxW+9zifwXMuX2k4SuPWQAAAAASUVORK5CYII=;fontSize=10;labelPosition=center;align=center;" vertex="1" parent="1">
          <mxGeometry x="270" y="391" width="30" height="40" as="geometry" />
        </mxCell>
        <mxCell id="-DjrFjEzPPp2w2y8W-10-22" value="" style="shape=image;verticalLabelPosition=top;labelBackgroundColor=none;verticalAlign=bottom;imageAspect=0;image=data:image/png,iVBORw0KGgoAAAANSUhEUgAAADEAAABBCAYAAAB4vkzdAAAAAXNSR0IArs4c6QAAAARnQU1BAACxjwv8YQUAAAAJcEhZcwAAFxEAABcRAcom8z8AABAISURBVGhD3Vr5W1RXts3/1d3pTr+0Q8wLJmocYhyjcWhHjE00toqKrQZiiCYaHEERFVSmKCDIDMqMzCBDAQUyyDwPu9falwtFWVWUgO+Hd75vf1Ui3LvWHtbZ+9z7gfw/WP8nJIaGBqW+vk4aGuqls7NDRkaGJ/5nftZ7J1FXVyOBgcGybt23smnTTjl9+icJCXkoqamZUlxcrOQ6OtplbGxk4i/efb03Ej09XZKQkCDbt3vKV1/tl59+CpFLlx7JiRNXZO/eU7Jq1T/ls8/Wy44d34mPj58EB4dKYmKKZGVlS01NtXR3d05caeb1XkgUFOSJn99FgNwghw/7S0REsrx+3S69vT1IqRbJzy+RmJg0uXUrBuQC5cgRX9myxUtJLVy4EsQPyJkz/vj/+xIXFy8vXmRLbW0N/r574g7T17ySYGrcvh0sGzfulg0bvCQo6ImUllbJwEAfItMtb968gYe7AaZXBgf71ZhKBJiVVQBiqfibKPH1vSoHDvjImjW7ZMGCFbJ06UbZtcsLxM4jNe8gFTMm7miseSExPj4mjx9Hw+s+4uGxBXl/RdLS8gG6U/r6eqW9vd2pdXV1gWCP9Pf3oeCHQKwPf9cuVVW1kpGRi+smyc2bYXLq1M+ye/e/kYbbkJ7bJTPzOepoTO8/ZxIlJcVInQvw/AHZv99XoqPTUcz1ANULL3cAaNtbwJ1ZW5vxuyTG1BsY6Jfh4UFcqwc/b5HCwnLx9w9ChHaIt7e3EueaNYnu7i65ciUARfpvXPSABAQ8xE0qAKBTAdgDfDcjGYMQU5CyXFhYitpKQQ3dkq+/3i5eXl6KgWtWJBITn8nBg8eQ+/9CUV6S5OR8FGwjLtqLm3bBo50AMHdjJBsbmyUpKQ+yHAunRSHqgZDrHXLo0OHZkbBaGyGHp6EkB2XnTh958CAVuWuR1tYWtaam5nmx5ubXcEQXRKFOoqLSoVKxcufOUxCJl/Png2ZHgrl579492bbNE+Yt587dhkxWQjY7cMNWqJIVddA4Z7NYGvVaFks9irpEwsKSoFYx2EPilACJvDOJ4eEhaH6B7NnjidT5Tr7//gJkMAc3oddbEerXuDkJzN0slia18vJaFQcCvn3biIAZhfv3n8nPP7Mm3CIxDpBW+fXX3yFnO8XT008uXw6FElXDU83IfwN8bS096BiUu2axWHHNJqmubpTs7DJ4P1HBm9437e7dBAkNTbQhccg5iY6ON9gln6LP2Y68Pyk//hgMTS4FYONmNTWNuGHDvBidwGuWldVKfHyuAiUBEzjTybQHD5L10yRx+PCRt0mws3z58iX096ysXLkLn9cR1gwFTe/zho6AzNZ4vVevGrBTl8LDSQqanjY8PgXelsTDhykTNbFTjh71AYkexa4kqDpBQSHy5Zdbofs/yu+/R0peXpXmKMNcVVU/b0bgTKHSUno/B5430sYeNImQFL8TfHh4KpyaqZF4i0R/fz+03lvWrt0HDb6LzjMHN6PXG1FkdQj1/Fl5uQWfFs39P/7IRMEauT4dvAH80aMUWCrAp+F3n8uTJy8mSaxf/8/pJKzWJlm9ertcuHAPHmqBZLYp+IKCKqRXtWq1AcAwe2DuWmVlvV4vISHXYc5PgZ8C/vjxCzXzO0mw612z5pvpJBobG9H3eEINYvQHg4PDKO5upFibRoRFV1j4Sq2oqGaSzExmgqf3Kyrq5fnzUgVBubT3Po3pEhGRPgmYn9ONJJ7Lb7/dkWXLvkb2nLInsR818RjFbXSF5hoaGkEv1ItN7Q3Sq0mJMEL8pFdJypkVF9cAvAWyXIc2JQ8an+jU+xERU563B0/i5venT3O1o122bIOSYPfL5ZKE7RoeHgXzPu2L6upeK4nc3EoIQCV27yqQe4VPw/i9sLAaw0yZgqDm37v3tvcJPjIyYxpo0+h1fsbF5YDcc5XgpKRCuXFjDiRs18jIKOaEAaRdD+S3Vb3OdCEhgmeknj3LV4Vh38Od1p5AZKSr1DG8Hh+fhygWoI7ylAC/zxsJ2zU6OobeahBp14c6ateo0MNMHcqnmTKmUe+deZ+E6HGCJuCkpILJT5IwIhEqK1asA4mT7tXEu67x8XH0U20TBGKnESD4qKiMaTluT8AevK1NkQiT5ctdRIJe5WLecy5gHbzramnpUPD37k2lkEnAFXimnz1wW7Ml4TKdxsbG1ZuxsSly8uQNlcOCgkoMKF1ImSH9v5kWlYwkzDowCDj3/pMnWW4RSE5+CTPSaenS1fLDDyddk4iOTpLvvruADeWynDlzE93sA9yUh13VGqH+/qHJId1c5r/NSJgk2DI4SiF3wZtGEpwxSMLDY5VzEqOjhqep7deuRWFjCcU2f187WfZTVBp6lh4pLa3RCPX3D6pajY2NqgOamtoUPEmwdXBEICbGNQFb8CaBlJQid0g80ZpgxnR28pyoXye33NwKhD0DqWU0alScR4+4OVFJ8lRWh4aGNRKjo6Pa9RL8gwcpb4E3CGQ7BG6aPYGUFCMCHAdmJHHrVpSmEy0uLgs74xNcoBBdpxVSxkOubt212TqnphaiGPNROzmSnl6MVmVICYyMjCgJthD2hWxGxFkEHIE3CbhBwoqucB/SJWQiEuPQ+aeY5vzFy+tXpNId7XXS0l4CoFV6e0moS6W0spKdbv0kieHhYackYmOzdfd1h0RqqpE6tjYjiXXr9umwMTxsnEzzkIrHIz4+N+TUqety7lywXLwYptGJjc3SFGtoaEXa9WjaDQ0NqTkjQRUygdqDN3/uigBtxnRau3YnCjhIGz5GgqlDFWL3mZKSD4VJ1v4nMDBGZZftRFxcrl60rKxed+zBwQF8DkzWhEnCVRrZgndFgGaSYAPoUGK/+upbJUGVIQmmTkhIHFQhH6CatcDZmpeU1GidsBbo3adP83DhYqRYH0jwuLFfx04Cpxm/k6OtxEwE0tKKp4G2N5JITzcisWTJMpA4YU9i2zQSlMADBy7KsWMBkNpoeDYZBV0GgM2IEHfzbi149kkcY3t6etEQ9qmRBBXIJJGYmK8g50KA9vx5meTkVCASobJwoYc9CatG4vz561oTLO7s7HI5ezYIRX0bk9RdCQiIUAmm/sfFvdBWu7a2SSPEeYMX45E9P5lO3MiYQmYXam+2BKhujkDbG0lwlgkMDJNFi5Y6I3FVc5ua39PTp4djubnlWsjcuKYmMqON4IbHC1dWNugpNuuoq4sRqtd5mCQYBVcEaI4A21tmZgkibswpM5Lo7x+YUBruwsOa4319/WgIO1DkdbhYscokwTEFWIhMqc7OLk0x7uA80WA6ch6wJ2BPgjnuCLStcU7h8MXs4L3cJsFzf+OJTg+sV41keOpNQnV1PG606HTHPDXrhIfAJMFIOOqNbAkwko5A2xojTQKcEM2JcUYSVBkWJ9PCNAKjtbfT05Rew+P8WWtrpx6s8ZP/Z5JgJLij2xKwJ+EItL3RQQYBzvXVNiScFvZV/JBe5xxtgHTHTEKmOSNhS8DsSF0ZwdtGwBh7q6FO96FOi+TwYW/Fa0Nim5Jgbnd0MGWmA3sXc4eEI9DTrRhRqFTwppEAz8CCgx++fxI8ppkriaysct2XzCjQeAzE08Pw8BhZvPiT90PCTCuesc6FBOXUPgokQCHhKSJJLFiwUA4dckKio4PPyd6dhFnw/O6IhC0BV/0Rzdj8iqdFgWnEPo4P8qOjY+Sjjz4CieOOSFwDkA6Q6HkLpCMz1YrfrdZW3Rz5nTd0RcIRcNMYhezsClUlkwDJMAo830pLy5E9e/aAxAKo01HbIxurrFnzrZw+/ase5Xd28gkoH+FOgXQGvLGxRZ8asV/iQxh+LylxHQlH4E0jiYICQ4VMEpxX2KcFB4fA2evlz39eALybILWBuqdNkqDEHjt2HqF+ic3F0GQe7RMoc91MFRO07eMumvnoit+ZTtzknj2bXT3YSmpxsUVnl6NHj6OYF8vf/rZEdu3yxCgQJi0tLUqAa5LE8eM/4yYFmrO8sZG7xdqlVlU1KHAex5iAnRlJcDeeC4miolp0AzXo056o95k+nCFOn/bF3vECPV7/BHxjTZLw9vZXWeMGw+Iye6O0NJLhQGJoN1sN43HVFHA++bElQbCzIcE2g97Pzi4F4PPw/qcg8Il8880uuX07BJnQoKOC/ZpGgl0rw8ht3pwV6B3egMRoHE7M3ZQHx3wGwdQjsZqaBvx7dpHIyqKs1qD7TZUtW7YB/McYflYhlU7gGonaDjlbkyROnPBHGF+plJGIaYZCGKRMY92QHAmxyzQJsaiLiqoVuLskMjM57LzCZ7FcvnwTwD3k44+XyPr12+Xq1etI5crJgzlna5LEf/7jDyWo1bbB/mmPLSlbsyXGfp/pQGA82bDtYG1J2A5BL15wZ66QyMgE2bfvX/KXv/xdPv10hRw8eAQt/1PtpN1Z00iYuW4+pjXIWN4yV+SYgq4OBRITGY1SeL8K3/Pl0qXr8sUXy+XDD/8O6dwqv/xyEXX3ckbv265JEmfPXpjYtNomZdRiadY8N0mZxv7ImZGEs1mCBCgYeXnVmA6T4fGj8te//g8K+AvZu/d7RCRymnS6uz7gKz70ANWAJ9+csc3Wg3NCY6OxqdkaidE4HHGD5P5g/oy14YxEZmY5UqhSbty4Kxs3bkX6/ENWrlwvZ874gliuniDOZn3AF6M8PNbKtm370ZfEIZRlIMBXPMdx0THkJcdTEprauRktq7VF6qoapaKoThrq2qS5+Y1G0tmOTfA80z1+/ByGmiUo3k/0hcWQkLuIev0EnNmtD5h7AQE3ZcWKDQitBzy0V86d85f798Nx4xyAboM28+heMDDxOR128PYesb5uleup1+RB3kVJL4kVS229tLd1a0rZkuAAlJlZAZ0Pl82bd8if/vSRblze3mfw8wyX0unu0tcieCz/7FmyXLhwWbf1xYtXoND+V1av3gqdPgnpuyIpKcn6Ypa5evsGJKosQo4Ub5ZN6Qvkj+xoaW3pREpZlQTTKT29FEQKxcfHVz7/fBWcxI1rp1y7dgOpWDtxpbmvaW/Z8JTDYqkD4DS5fj1IPD29sOkshvcWgtAmFOIP4ufnD/mLlZbXBqHSvjKJa4uW6ja+kNsLEo16QpicXCR37vwhO3bsReosgmOW6wwQHx+P2d39F3fdWW+9KmQuHtnQW76+fhohvk/x4YeLUIyLIImrsKvuQJROSWxUnHRYp0Cxdnh06ed3WZYvp/cXQP2+kd9+C8BQU6Gn5/O9nJLgYr1ERETAu/VofcP1DbSwsHCkxxn58st1iNKnEIUVsnbtRmxW+/QVu9TUNNm9+yDm4M9gyzSaERGRqKU3E1ed/+WSBE+5w8PDVWZ5HuvtfQLFzeP8HvT4NUirBMjjOVm3bitGxqVoGT6H99foWenKlZsQjV+wm+dP9v3va81I4tGjR7rphYYmYOaYeqHWXHwm8Rr1kZ6eoam3efMeyDWjch/K1jrxW+9zifwXMuX2k4SuPWQAAAAASUVORK5CYII=;fontSize=10;labelPosition=center;align=center;" vertex="1" parent="1">
          <mxGeometry x="220" y="391" width="30" height="40" as="geometry" />
        </mxCell>
        <mxCell id="-DjrFjEzPPp2w2y8W-10-23" value="" style="shape=image;verticalLabelPosition=top;labelBackgroundColor=none;verticalAlign=bottom;imageAspect=0;image=data:image/png,iVBORw0KGgoAAAANSUhEUgAAADEAAABBCAYAAAB4vkzdAAAAAXNSR0IArs4c6QAAAARnQU1BAACxjwv8YQUAAAAJcEhZcwAAFxEAABcRAcom8z8AABAISURBVGhD3Vr5W1RXts3/1d3pTr+0Q8wLJmocYhyjcWhHjE00toqKrQZiiCYaHEERFVSmKCDIDMqMzCBDAQUyyDwPu9falwtFWVWUgO+Hd75vf1Ui3LvWHtbZ+9z7gfw/WP8nJIaGBqW+vk4aGuqls7NDRkaGJ/5nftZ7J1FXVyOBgcGybt23smnTTjl9+icJCXkoqamZUlxcrOQ6OtplbGxk4i/efb03Ej09XZKQkCDbt3vKV1/tl59+CpFLlx7JiRNXZO/eU7Jq1T/ls8/Wy44d34mPj58EB4dKYmKKZGVlS01NtXR3d05caeb1XkgUFOSJn99FgNwghw/7S0REsrx+3S69vT1IqRbJzy+RmJg0uXUrBuQC5cgRX9myxUtJLVy4EsQPyJkz/vj/+xIXFy8vXmRLbW0N/r574g7T17ySYGrcvh0sGzfulg0bvCQo6ImUllbJwEAfItMtb968gYe7AaZXBgf71ZhKBJiVVQBiqfibKPH1vSoHDvjImjW7ZMGCFbJ06UbZtcsLxM4jNe8gFTMm7miseSExPj4mjx9Hw+s+4uGxBXl/RdLS8gG6U/r6eqW9vd2pdXV1gWCP9Pf3oeCHQKwPf9cuVVW1kpGRi+smyc2bYXLq1M+ye/e/kYbbkJ7bJTPzOepoTO8/ZxIlJcVInQvw/AHZv99XoqPTUcz1ANULL3cAaNtbwJ1ZW5vxuyTG1BsY6Jfh4UFcqwc/b5HCwnLx9w9ChHaIt7e3EueaNYnu7i65ciUARfpvXPSABAQ8xE0qAKBTAdgDfDcjGYMQU5CyXFhYitpKQQ3dkq+/3i5eXl6KgWtWJBITn8nBg8eQ+/9CUV6S5OR8FGwjLtqLm3bBo50AMHdjJBsbmyUpKQ+yHAunRSHqgZDrHXLo0OHZkbBaGyGHp6EkB2XnTh958CAVuWuR1tYWtaam5nmx5ubXcEQXRKFOoqLSoVKxcufOUxCJl/Png2ZHgrl579492bbNE+Yt587dhkxWQjY7cMNWqJIVddA4Z7NYGvVaFks9irpEwsKSoFYx2EPilACJvDOJ4eEhaH6B7NnjidT5Tr7//gJkMAc3oddbEerXuDkJzN0slia18vJaFQcCvn3biIAZhfv3n8nPP7Mm3CIxDpBW+fXX3yFnO8XT008uXw6FElXDU83IfwN8bS096BiUu2axWHHNJqmubpTs7DJ4P1HBm9437e7dBAkNTbQhccg5iY6ON9gln6LP2Y68Pyk//hgMTS4FYONmNTWNuGHDvBidwGuWldVKfHyuAiUBEzjTybQHD5L10yRx+PCRt0mws3z58iX096ysXLkLn9cR1gwFTe/zho6AzNZ4vVevGrBTl8LDSQqanjY8PgXelsTDhykTNbFTjh71AYkexa4kqDpBQSHy5Zdbofs/yu+/R0peXpXmKMNcVVU/b0bgTKHSUno/B5430sYeNImQFL8TfHh4KpyaqZF4i0R/fz+03lvWrt0HDb6LzjMHN6PXG1FkdQj1/Fl5uQWfFs39P/7IRMEauT4dvAH80aMUWCrAp+F3n8uTJy8mSaxf/8/pJKzWJlm9ertcuHAPHmqBZLYp+IKCKqRXtWq1AcAwe2DuWmVlvV4vISHXYc5PgZ8C/vjxCzXzO0mw612z5pvpJBobG9H3eEINYvQHg4PDKO5upFibRoRFV1j4Sq2oqGaSzExmgqf3Kyrq5fnzUgVBubT3Po3pEhGRPgmYn9ONJJ7Lb7/dkWXLvkb2nLInsR818RjFbXSF5hoaGkEv1ItN7Q3Sq0mJMEL8pFdJypkVF9cAvAWyXIc2JQ8an+jU+xERU563B0/i5venT3O1o122bIOSYPfL5ZKE7RoeHgXzPu2L6upeK4nc3EoIQCV27yqQe4VPw/i9sLAaw0yZgqDm37v3tvcJPjIyYxpo0+h1fsbF5YDcc5XgpKRCuXFjDiRs18jIKOaEAaRdD+S3Vb3OdCEhgmeknj3LV4Vh38Od1p5AZKSr1DG8Hh+fhygWoI7ylAC/zxsJ2zU6OobeahBp14c6ateo0MNMHcqnmTKmUe+deZ+E6HGCJuCkpILJT5IwIhEqK1asA4mT7tXEu67x8XH0U20TBGKnESD4qKiMaTluT8AevK1NkQiT5ctdRIJe5WLecy5gHbzramnpUPD37k2lkEnAFXimnz1wW7Ml4TKdxsbG1ZuxsSly8uQNlcOCgkoMKF1ImSH9v5kWlYwkzDowCDj3/pMnWW4RSE5+CTPSaenS1fLDDyddk4iOTpLvvruADeWynDlzE93sA9yUh13VGqH+/qHJId1c5r/NSJgk2DI4SiF3wZtGEpwxSMLDY5VzEqOjhqep7deuRWFjCcU2f187WfZTVBp6lh4pLa3RCPX3D6pajY2NqgOamtoUPEmwdXBEICbGNQFb8CaBlJQid0g80ZpgxnR28pyoXye33NwKhD0DqWU0alScR4+4OVFJ8lRWh4aGNRKjo6Pa9RL8gwcpb4E3CGQ7BG6aPYGUFCMCHAdmJHHrVpSmEy0uLgs74xNcoBBdpxVSxkOubt212TqnphaiGPNROzmSnl6MVmVICYyMjCgJthD2hWxGxFkEHIE3CbhBwoqucB/SJWQiEuPQ+aeY5vzFy+tXpNId7XXS0l4CoFV6e0moS6W0spKdbv0kieHhYackYmOzdfd1h0RqqpE6tjYjiXXr9umwMTxsnEzzkIrHIz4+N+TUqety7lywXLwYptGJjc3SFGtoaEXa9WjaDQ0NqTkjQRUygdqDN3/uigBtxnRau3YnCjhIGz5GgqlDFWL3mZKSD4VJ1v4nMDBGZZftRFxcrl60rKxed+zBwQF8DkzWhEnCVRrZgndFgGaSYAPoUGK/+upbJUGVIQmmTkhIHFQhH6CatcDZmpeU1GidsBbo3adP83DhYqRYH0jwuLFfx04Cpxm/k6OtxEwE0tKKp4G2N5JITzcisWTJMpA4YU9i2zQSlMADBy7KsWMBkNpoeDYZBV0GgM2IEHfzbi149kkcY3t6etEQ9qmRBBXIJJGYmK8g50KA9vx5meTkVCASobJwoYc9CatG4vz561oTLO7s7HI5ezYIRX0bk9RdCQiIUAmm/sfFvdBWu7a2SSPEeYMX45E9P5lO3MiYQmYXam+2BKhujkDbG0lwlgkMDJNFi5Y6I3FVc5ua39PTp4djubnlWsjcuKYmMqON4IbHC1dWNugpNuuoq4sRqtd5mCQYBVcEaI4A21tmZgkibswpM5Lo7x+YUBruwsOa4319/WgIO1DkdbhYscokwTEFWIhMqc7OLk0x7uA80WA6ch6wJ2BPgjnuCLStcU7h8MXs4L3cJsFzf+OJTg+sV41keOpNQnV1PG606HTHPDXrhIfAJMFIOOqNbAkwko5A2xojTQKcEM2JcUYSVBkWJ9PCNAKjtbfT05Rew+P8WWtrpx6s8ZP/Z5JgJLij2xKwJ+EItL3RQQYBzvXVNiScFvZV/JBe5xxtgHTHTEKmOSNhS8DsSF0ZwdtGwBh7q6FO96FOi+TwYW/Fa0Nim5Jgbnd0MGWmA3sXc4eEI9DTrRhRqFTwppEAz8CCgx++fxI8ppkriaysct2XzCjQeAzE08Pw8BhZvPiT90PCTCuesc6FBOXUPgokQCHhKSJJLFiwUA4dckKio4PPyd6dhFnw/O6IhC0BV/0Rzdj8iqdFgWnEPo4P8qOjY+Sjjz4CieOOSFwDkA6Q6HkLpCMz1YrfrdZW3Rz5nTd0RcIRcNMYhezsClUlkwDJMAo830pLy5E9e/aAxAKo01HbIxurrFnzrZw+/ase5Xd28gkoH+FOgXQGvLGxRZ8asV/iQxh+LylxHQlH4E0jiYICQ4VMEpxX2KcFB4fA2evlz39eALybILWBuqdNkqDEHjt2HqF+ic3F0GQe7RMoc91MFRO07eMumvnoit+ZTtzknj2bXT3YSmpxsUVnl6NHj6OYF8vf/rZEdu3yxCgQJi0tLUqAa5LE8eM/4yYFmrO8sZG7xdqlVlU1KHAex5iAnRlJcDeeC4miolp0AzXo056o95k+nCFOn/bF3vECPV7/BHxjTZLw9vZXWeMGw+Iye6O0NJLhQGJoN1sN43HVFHA++bElQbCzIcE2g97Pzi4F4PPw/qcg8Il8880uuX07BJnQoKOC/ZpGgl0rw8ht3pwV6B3egMRoHE7M3ZQHx3wGwdQjsZqaBvx7dpHIyqKs1qD7TZUtW7YB/McYflYhlU7gGonaDjlbkyROnPBHGF+plJGIaYZCGKRMY92QHAmxyzQJsaiLiqoVuLskMjM57LzCZ7FcvnwTwD3k44+XyPr12+Xq1etI5crJgzlna5LEf/7jDyWo1bbB/mmPLSlbsyXGfp/pQGA82bDtYG1J2A5BL15wZ66QyMgE2bfvX/KXv/xdPv10hRw8eAQt/1PtpN1Z00iYuW4+pjXIWN4yV+SYgq4OBRITGY1SeL8K3/Pl0qXr8sUXy+XDD/8O6dwqv/xyEXX3ckbv265JEmfPXpjYtNomZdRiadY8N0mZxv7ImZGEs1mCBCgYeXnVmA6T4fGj8te//g8K+AvZu/d7RCRymnS6uz7gKz70ANWAJ9+csc3Wg3NCY6OxqdkaidE4HHGD5P5g/oy14YxEZmY5UqhSbty4Kxs3bkX6/ENWrlwvZ874gliuniDOZn3AF6M8PNbKtm370ZfEIZRlIMBXPMdx0THkJcdTEprauRktq7VF6qoapaKoThrq2qS5+Y1G0tmOTfA80z1+/ByGmiUo3k/0hcWQkLuIev0EnNmtD5h7AQE3ZcWKDQitBzy0V86d85f798Nx4xyAboM28+heMDDxOR128PYesb5uleup1+RB3kVJL4kVS229tLd1a0rZkuAAlJlZAZ0Pl82bd8if/vSRblze3mfw8wyX0unu0tcieCz/7FmyXLhwWbf1xYtXoND+V1av3gqdPgnpuyIpKcn6Ypa5evsGJKosQo4Ub5ZN6Qvkj+xoaW3pREpZlQTTKT29FEQKxcfHVz7/fBWcxI1rp1y7dgOpWDtxpbmvaW/Z8JTDYqkD4DS5fj1IPD29sOkshvcWgtAmFOIP4ufnD/mLlZbXBqHSvjKJa4uW6ja+kNsLEo16QpicXCR37vwhO3bsReosgmOW6wwQHx+P2d39F3fdWW+9KmQuHtnQW76+fhohvk/x4YeLUIyLIImrsKvuQJROSWxUnHRYp0Cxdnh06ed3WZYvp/cXQP2+kd9+C8BQU6Gn5/O9nJLgYr1ERETAu/VofcP1DbSwsHCkxxn58st1iNKnEIUVsnbtRmxW+/QVu9TUNNm9+yDm4M9gyzSaERGRqKU3E1ed/+WSBE+5w8PDVWZ5HuvtfQLFzeP8HvT4NUirBMjjOVm3bitGxqVoGT6H99foWenKlZsQjV+wm+dP9v3va81I4tGjR7rphYYmYOaYeqHWXHwm8Rr1kZ6eoam3efMeyDWjch/K1jrxW+9zifwXMuX2k4SuPWQAAAAASUVORK5CYII=;fontSize=10;labelPosition=center;align=center;" vertex="1" parent="1">
          <mxGeometry x="245" y="350" width="30" height="40" as="geometry" />
        </mxCell>
        <mxCell id="-DjrFjEzPPp2w2y8W-10-24" value="IaaS Service" style="rounded=1;whiteSpace=wrap;html=1;dashed=1;dashPattern=1 1;strokeWidth=2;strokeColor=#EA6B66;fillColor=none;labelPosition=center;verticalLabelPosition=top;align=center;verticalAlign=bottom;" vertex="1" parent="1">
          <mxGeometry x="360" y="340" width="120" height="100" as="geometry" />
        </mxCell>
        <mxCell id="-DjrFjEzPPp2w2y8W-10-25" value="" style="shape=image;verticalLabelPosition=top;labelBackgroundColor=none;verticalAlign=bottom;imageAspect=0;image=data:image/png,iVBORw0KGgoAAAANSUhEUgAAADEAAABBCAYAAAB4vkzdAAAAAXNSR0IArs4c6QAAAARnQU1BAACxjwv8YQUAAAAJcEhZcwAAFxEAABcRAcom8z8AABAISURBVGhD3Vr5W1RXts3/1d3pTr+0Q8wLJmocYhyjcWhHjE00toqKrQZiiCYaHEERFVSmKCDIDMqMzCBDAQUyyDwPu9falwtFWVWUgO+Hd75vf1Ui3LvWHtbZ+9z7gfw/WP8nJIaGBqW+vk4aGuqls7NDRkaGJ/5nftZ7J1FXVyOBgcGybt23smnTTjl9+icJCXkoqamZUlxcrOQ6OtplbGxk4i/efb03Ej09XZKQkCDbt3vKV1/tl59+CpFLlx7JiRNXZO/eU7Jq1T/ls8/Wy44d34mPj58EB4dKYmKKZGVlS01NtXR3d05caeb1XkgUFOSJn99FgNwghw/7S0REsrx+3S69vT1IqRbJzy+RmJg0uXUrBuQC5cgRX9myxUtJLVy4EsQPyJkz/vj/+xIXFy8vXmRLbW0N/r574g7T17ySYGrcvh0sGzfulg0bvCQo6ImUllbJwEAfItMtb968gYe7AaZXBgf71ZhKBJiVVQBiqfibKPH1vSoHDvjImjW7ZMGCFbJ06UbZtcsLxM4jNe8gFTMm7miseSExPj4mjx9Hw+s+4uGxBXl/RdLS8gG6U/r6eqW9vd2pdXV1gWCP9Pf3oeCHQKwPf9cuVVW1kpGRi+smyc2bYXLq1M+ye/e/kYbbkJ7bJTPzOepoTO8/ZxIlJcVInQvw/AHZv99XoqPTUcz1ANULL3cAaNtbwJ1ZW5vxuyTG1BsY6Jfh4UFcqwc/b5HCwnLx9w9ChHaIt7e3EueaNYnu7i65ciUARfpvXPSABAQ8xE0qAKBTAdgDfDcjGYMQU5CyXFhYitpKQQ3dkq+/3i5eXl6KgWtWJBITn8nBg8eQ+/9CUV6S5OR8FGwjLtqLm3bBo50AMHdjJBsbmyUpKQ+yHAunRSHqgZDrHXLo0OHZkbBaGyGHp6EkB2XnTh958CAVuWuR1tYWtaam5nmx5ubXcEQXRKFOoqLSoVKxcufOUxCJl/Png2ZHgrl579492bbNE+Yt587dhkxWQjY7cMNWqJIVddA4Z7NYGvVaFks9irpEwsKSoFYx2EPilACJvDOJ4eEhaH6B7NnjidT5Tr7//gJkMAc3oddbEerXuDkJzN0slia18vJaFQcCvn3biIAZhfv3n8nPP7Mm3CIxDpBW+fXX3yFnO8XT008uXw6FElXDU83IfwN8bS096BiUu2axWHHNJqmubpTs7DJ4P1HBm9437e7dBAkNTbQhccg5iY6ON9gln6LP2Y68Pyk//hgMTS4FYONmNTWNuGHDvBidwGuWldVKfHyuAiUBEzjTybQHD5L10yRx+PCRt0mws3z58iX096ysXLkLn9cR1gwFTe/zho6AzNZ4vVevGrBTl8LDSQqanjY8PgXelsTDhykTNbFTjh71AYkexa4kqDpBQSHy5Zdbofs/yu+/R0peXpXmKMNcVVU/b0bgTKHSUno/B5430sYeNImQFL8TfHh4KpyaqZF4i0R/fz+03lvWrt0HDb6LzjMHN6PXG1FkdQj1/Fl5uQWfFs39P/7IRMEauT4dvAH80aMUWCrAp+F3n8uTJy8mSaxf/8/pJKzWJlm9ertcuHAPHmqBZLYp+IKCKqRXtWq1AcAwe2DuWmVlvV4vISHXYc5PgZ8C/vjxCzXzO0mw612z5pvpJBobG9H3eEINYvQHg4PDKO5upFibRoRFV1j4Sq2oqGaSzExmgqf3Kyrq5fnzUgVBubT3Po3pEhGRPgmYn9ONJJ7Lb7/dkWXLvkb2nLInsR818RjFbXSF5hoaGkEv1ItN7Q3Sq0mJMEL8pFdJypkVF9cAvAWyXIc2JQ8an+jU+xERU563B0/i5venT3O1o122bIOSYPfL5ZKE7RoeHgXzPu2L6upeK4nc3EoIQCV27yqQe4VPw/i9sLAaw0yZgqDm37v3tvcJPjIyYxpo0+h1fsbF5YDcc5XgpKRCuXFjDiRs18jIKOaEAaRdD+S3Vb3OdCEhgmeknj3LV4Vh38Od1p5AZKSr1DG8Hh+fhygWoI7ylAC/zxsJ2zU6OobeahBp14c6ateo0MNMHcqnmTKmUe+deZ+E6HGCJuCkpILJT5IwIhEqK1asA4mT7tXEu67x8XH0U20TBGKnESD4qKiMaTluT8AevK1NkQiT5ctdRIJe5WLecy5gHbzramnpUPD37k2lkEnAFXimnz1wW7Ml4TKdxsbG1ZuxsSly8uQNlcOCgkoMKF1ImSH9v5kWlYwkzDowCDj3/pMnWW4RSE5+CTPSaenS1fLDDyddk4iOTpLvvruADeWynDlzE93sA9yUh13VGqH+/qHJId1c5r/NSJgk2DI4SiF3wZtGEpwxSMLDY5VzEqOjhqep7deuRWFjCcU2f187WfZTVBp6lh4pLa3RCPX3D6pajY2NqgOamtoUPEmwdXBEICbGNQFb8CaBlJQid0g80ZpgxnR28pyoXye33NwKhD0DqWU0alScR4+4OVFJ8lRWh4aGNRKjo6Pa9RL8gwcpb4E3CGQ7BG6aPYGUFCMCHAdmJHHrVpSmEy0uLgs74xNcoBBdpxVSxkOubt212TqnphaiGPNROzmSnl6MVmVICYyMjCgJthD2hWxGxFkEHIE3CbhBwoqucB/SJWQiEuPQ+aeY5vzFy+tXpNId7XXS0l4CoFV6e0moS6W0spKdbv0kieHhYackYmOzdfd1h0RqqpE6tjYjiXXr9umwMTxsnEzzkIrHIz4+N+TUqety7lywXLwYptGJjc3SFGtoaEXa9WjaDQ0NqTkjQRUygdqDN3/uigBtxnRau3YnCjhIGz5GgqlDFWL3mZKSD4VJ1v4nMDBGZZftRFxcrl60rKxed+zBwQF8DkzWhEnCVRrZgndFgGaSYAPoUGK/+upbJUGVIQmmTkhIHFQhH6CatcDZmpeU1GidsBbo3adP83DhYqRYH0jwuLFfx04Cpxm/k6OtxEwE0tKKp4G2N5JITzcisWTJMpA4YU9i2zQSlMADBy7KsWMBkNpoeDYZBV0GgM2IEHfzbi149kkcY3t6etEQ9qmRBBXIJJGYmK8g50KA9vx5meTkVCASobJwoYc9CatG4vz561oTLO7s7HI5ezYIRX0bk9RdCQiIUAmm/sfFvdBWu7a2SSPEeYMX45E9P5lO3MiYQmYXam+2BKhujkDbG0lwlgkMDJNFi5Y6I3FVc5ua39PTp4djubnlWsjcuKYmMqON4IbHC1dWNugpNuuoq4sRqtd5mCQYBVcEaI4A21tmZgkibswpM5Lo7x+YUBruwsOa4319/WgIO1DkdbhYscokwTEFWIhMqc7OLk0x7uA80WA6ch6wJ2BPgjnuCLStcU7h8MXs4L3cJsFzf+OJTg+sV41keOpNQnV1PG606HTHPDXrhIfAJMFIOOqNbAkwko5A2xojTQKcEM2JcUYSVBkWJ9PCNAKjtbfT05Rew+P8WWtrpx6s8ZP/Z5JgJLij2xKwJ+EItL3RQQYBzvXVNiScFvZV/JBe5xxtgHTHTEKmOSNhS8DsSF0ZwdtGwBh7q6FO96FOi+TwYW/Fa0Nim5Jgbnd0MGWmA3sXc4eEI9DTrRhRqFTwppEAz8CCgx++fxI8ppkriaysct2XzCjQeAzE08Pw8BhZvPiT90PCTCuesc6FBOXUPgokQCHhKSJJLFiwUA4dckKio4PPyd6dhFnw/O6IhC0BV/0Rzdj8iqdFgWnEPo4P8qOjY+Sjjz4CieOOSFwDkA6Q6HkLpCMz1YrfrdZW3Rz5nTd0RcIRcNMYhezsClUlkwDJMAo830pLy5E9e/aAxAKo01HbIxurrFnzrZw+/ase5Xd28gkoH+FOgXQGvLGxRZ8asV/iQxh+LylxHQlH4E0jiYICQ4VMEpxX2KcFB4fA2evlz39eALybILWBuqdNkqDEHjt2HqF+ic3F0GQe7RMoc91MFRO07eMumvnoit+ZTtzknj2bXT3YSmpxsUVnl6NHj6OYF8vf/rZEdu3yxCgQJi0tLUqAa5LE8eM/4yYFmrO8sZG7xdqlVlU1KHAex5iAnRlJcDeeC4miolp0AzXo056o95k+nCFOn/bF3vECPV7/BHxjTZLw9vZXWeMGw+Iye6O0NJLhQGJoN1sN43HVFHA++bElQbCzIcE2g97Pzi4F4PPw/qcg8Il8880uuX07BJnQoKOC/ZpGgl0rw8ht3pwV6B3egMRoHE7M3ZQHx3wGwdQjsZqaBvx7dpHIyqKs1qD7TZUtW7YB/McYflYhlU7gGonaDjlbkyROnPBHGF+plJGIaYZCGKRMY92QHAmxyzQJsaiLiqoVuLskMjM57LzCZ7FcvnwTwD3k44+XyPr12+Xq1etI5crJgzlna5LEf/7jDyWo1bbB/mmPLSlbsyXGfp/pQGA82bDtYG1J2A5BL15wZ66QyMgE2bfvX/KXv/xdPv10hRw8eAQt/1PtpN1Z00iYuW4+pjXIWN4yV+SYgq4OBRITGY1SeL8K3/Pl0qXr8sUXy+XDD/8O6dwqv/xyEXX3ckbv265JEmfPXpjYtNomZdRiadY8N0mZxv7ImZGEs1mCBCgYeXnVmA6T4fGj8te//g8K+AvZu/d7RCRymnS6uz7gKz70ANWAJ9+csc3Wg3NCY6OxqdkaidE4HHGD5P5g/oy14YxEZmY5UqhSbty4Kxs3bkX6/ENWrlwvZ874gliuniDOZn3AF6M8PNbKtm370ZfEIZRlIMBXPMdx0THkJcdTEprauRktq7VF6qoapaKoThrq2qS5+Y1G0tmOTfA80z1+/ByGmiUo3k/0hcWQkLuIev0EnNmtD5h7AQE3ZcWKDQitBzy0V86d85f798Nx4xyAboM28+heMDDxOR128PYesb5uleup1+RB3kVJL4kVS229tLd1a0rZkuAAlJlZAZ0Pl82bd8if/vSRblze3mfw8wyX0unu0tcieCz/7FmyXLhwWbf1xYtXoND+V1av3gqdPgnpuyIpKcn6Ypa5evsGJKosQo4Ub5ZN6Qvkj+xoaW3pREpZlQTTKT29FEQKxcfHVz7/fBWcxI1rp1y7dgOpWDtxpbmvaW/Z8JTDYqkD4DS5fj1IPD29sOkshvcWgtAmFOIP4ufnD/mLlZbXBqHSvjKJa4uW6ja+kNsLEo16QpicXCR37vwhO3bsReosgmOW6wwQHx+P2d39F3fdWW+9KmQuHtnQW76+fhohvk/x4YeLUIyLIImrsKvuQJROSWxUnHRYp0Cxdnh06ed3WZYvp/cXQP2+kd9+C8BQU6Gn5/O9nJLgYr1ERETAu/VofcP1DbSwsHCkxxn58st1iNKnEIUVsnbtRmxW+/QVu9TUNNm9+yDm4M9gyzSaERGRqKU3E1ed/+WSBE+5w8PDVWZ5HuvtfQLFzeP8HvT4NUirBMjjOVm3bitGxqVoGT6H99foWenKlZsQjV+wm+dP9v3va81I4tGjR7rphYYmYOaYeqHWXHwm8Rr1kZ6eoam3efMeyDWjch/K1jrxW+9zifwXMuX2k4SuPWQAAAAASUVORK5CYII=;fontSize=10;labelPosition=center;align=center;" vertex="1" parent="1">
          <mxGeometry x="430" y="391" width="30" height="40" as="geometry" />
        </mxCell>
        <mxCell id="-DjrFjEzPPp2w2y8W-10-26" value="" style="shape=image;verticalLabelPosition=top;labelBackgroundColor=none;verticalAlign=bottom;imageAspect=0;image=data:image/png,iVBORw0KGgoAAAANSUhEUgAAADEAAABBCAYAAAB4vkzdAAAAAXNSR0IArs4c6QAAAARnQU1BAACxjwv8YQUAAAAJcEhZcwAAFxEAABcRAcom8z8AABAISURBVGhD3Vr5W1RXts3/1d3pTr+0Q8wLJmocYhyjcWhHjE00toqKrQZiiCYaHEERFVSmKCDIDMqMzCBDAQUyyDwPu9falwtFWVWUgO+Hd75vf1Ui3LvWHtbZ+9z7gfw/WP8nJIaGBqW+vk4aGuqls7NDRkaGJ/5nftZ7J1FXVyOBgcGybt23smnTTjl9+icJCXkoqamZUlxcrOQ6OtplbGxk4i/efb03Ej09XZKQkCDbt3vKV1/tl59+CpFLlx7JiRNXZO/eU7Jq1T/ls8/Wy44d34mPj58EB4dKYmKKZGVlS01NtXR3d05caeb1XkgUFOSJn99FgNwghw/7S0REsrx+3S69vT1IqRbJzy+RmJg0uXUrBuQC5cgRX9myxUtJLVy4EsQPyJkz/vj/+xIXFy8vXmRLbW0N/r574g7T17ySYGrcvh0sGzfulg0bvCQo6ImUllbJwEAfItMtb968gYe7AaZXBgf71ZhKBJiVVQBiqfibKPH1vSoHDvjImjW7ZMGCFbJ06UbZtcsLxM4jNe8gFTMm7miseSExPj4mjx9Hw+s+4uGxBXl/RdLS8gG6U/r6eqW9vd2pdXV1gWCP9Pf3oeCHQKwPf9cuVVW1kpGRi+smyc2bYXLq1M+ye/e/kYbbkJ7bJTPzOepoTO8/ZxIlJcVInQvw/AHZv99XoqPTUcz1ANULL3cAaNtbwJ1ZW5vxuyTG1BsY6Jfh4UFcqwc/b5HCwnLx9w9ChHaIt7e3EueaNYnu7i65ciUARfpvXPSABAQ8xE0qAKBTAdgDfDcjGYMQU5CyXFhYitpKQQ3dkq+/3i5eXl6KgWtWJBITn8nBg8eQ+/9CUV6S5OR8FGwjLtqLm3bBo50AMHdjJBsbmyUpKQ+yHAunRSHqgZDrHXLo0OHZkbBaGyGHp6EkB2XnTh958CAVuWuR1tYWtaam5nmx5ubXcEQXRKFOoqLSoVKxcufOUxCJl/Png2ZHgrl579492bbNE+Yt587dhkxWQjY7cMNWqJIVddA4Z7NYGvVaFks9irpEwsKSoFYx2EPilACJvDOJ4eEhaH6B7NnjidT5Tr7//gJkMAc3oddbEerXuDkJzN0slia18vJaFQcCvn3biIAZhfv3n8nPP7Mm3CIxDpBW+fXX3yFnO8XT008uXw6FElXDU83IfwN8bS096BiUu2axWHHNJqmubpTs7DJ4P1HBm9437e7dBAkNTbQhccg5iY6ON9gln6LP2Y68Pyk//hgMTS4FYONmNTWNuGHDvBidwGuWldVKfHyuAiUBEzjTybQHD5L10yRx+PCRt0mws3z58iX096ysXLkLn9cR1gwFTe/zho6AzNZ4vVevGrBTl8LDSQqanjY8PgXelsTDhykTNbFTjh71AYkexa4kqDpBQSHy5Zdbofs/yu+/R0peXpXmKMNcVVU/b0bgTKHSUno/B5430sYeNImQFL8TfHh4KpyaqZF4i0R/fz+03lvWrt0HDb6LzjMHN6PXG1FkdQj1/Fl5uQWfFs39P/7IRMEauT4dvAH80aMUWCrAp+F3n8uTJy8mSaxf/8/pJKzWJlm9ertcuHAPHmqBZLYp+IKCKqRXtWq1AcAwe2DuWmVlvV4vISHXYc5PgZ8C/vjxCzXzO0mw612z5pvpJBobG9H3eEINYvQHg4PDKO5upFibRoRFV1j4Sq2oqGaSzExmgqf3Kyrq5fnzUgVBubT3Po3pEhGRPgmYn9ONJJ7Lb7/dkWXLvkb2nLInsR818RjFbXSF5hoaGkEv1ItN7Q3Sq0mJMEL8pFdJypkVF9cAvAWyXIc2JQ8an+jU+xERU563B0/i5venT3O1o122bIOSYPfL5ZKE7RoeHgXzPu2L6upeK4nc3EoIQCV27yqQe4VPw/i9sLAaw0yZgqDm37v3tvcJPjIyYxpo0+h1fsbF5YDcc5XgpKRCuXFjDiRs18jIKOaEAaRdD+S3Vb3OdCEhgmeknj3LV4Vh38Od1p5AZKSr1DG8Hh+fhygWoI7ylAC/zxsJ2zU6OobeahBp14c6ateo0MNMHcqnmTKmUe+deZ+E6HGCJuCkpILJT5IwIhEqK1asA4mT7tXEu67x8XH0U20TBGKnESD4qKiMaTluT8AevK1NkQiT5ctdRIJe5WLecy5gHbzramnpUPD37k2lkEnAFXimnz1wW7Ml4TKdxsbG1ZuxsSly8uQNlcOCgkoMKF1ImSH9v5kWlYwkzDowCDj3/pMnWW4RSE5+CTPSaenS1fLDDyddk4iOTpLvvruADeWynDlzE93sA9yUh13VGqH+/qHJId1c5r/NSJgk2DI4SiF3wZtGEpwxSMLDY5VzEqOjhqep7deuRWFjCcU2f187WfZTVBp6lh4pLa3RCPX3D6pajY2NqgOamtoUPEmwdXBEICbGNQFb8CaBlJQid0g80ZpgxnR28pyoXye33NwKhD0DqWU0alScR4+4OVFJ8lRWh4aGNRKjo6Pa9RL8gwcpb4E3CGQ7BG6aPYGUFCMCHAdmJHHrVpSmEy0uLgs74xNcoBBdpxVSxkOubt212TqnphaiGPNROzmSnl6MVmVICYyMjCgJthD2hWxGxFkEHIE3CbhBwoqucB/SJWQiEuPQ+aeY5vzFy+tXpNId7XXS0l4CoFV6e0moS6W0spKdbv0kieHhYackYmOzdfd1h0RqqpE6tjYjiXXr9umwMTxsnEzzkIrHIz4+N+TUqety7lywXLwYptGJjc3SFGtoaEXa9WjaDQ0NqTkjQRUygdqDN3/uigBtxnRau3YnCjhIGz5GgqlDFWL3mZKSD4VJ1v4nMDBGZZftRFxcrl60rKxed+zBwQF8DkzWhEnCVRrZgndFgGaSYAPoUGK/+upbJUGVIQmmTkhIHFQhH6CatcDZmpeU1GidsBbo3adP83DhYqRYH0jwuLFfx04Cpxm/k6OtxEwE0tKKp4G2N5JITzcisWTJMpA4YU9i2zQSlMADBy7KsWMBkNpoeDYZBV0GgM2IEHfzbi149kkcY3t6etEQ9qmRBBXIJJGYmK8g50KA9vx5meTkVCASobJwoYc9CatG4vz561oTLO7s7HI5ezYIRX0bk9RdCQiIUAmm/sfFvdBWu7a2SSPEeYMX45E9P5lO3MiYQmYXam+2BKhujkDbG0lwlgkMDJNFi5Y6I3FVc5ua39PTp4djubnlWsjcuKYmMqON4IbHC1dWNugpNuuoq4sRqtd5mCQYBVcEaI4A21tmZgkibswpM5Lo7x+YUBruwsOa4319/WgIO1DkdbhYscokwTEFWIhMqc7OLk0x7uA80WA6ch6wJ2BPgjnuCLStcU7h8MXs4L3cJsFzf+OJTg+sV41keOpNQnV1PG606HTHPDXrhIfAJMFIOOqNbAkwko5A2xojTQKcEM2JcUYSVBkWJ9PCNAKjtbfT05Rew+P8WWtrpx6s8ZP/Z5JgJLij2xKwJ+EItL3RQQYBzvXVNiScFvZV/JBe5xxtgHTHTEKmOSNhS8DsSF0ZwdtGwBh7q6FO96FOi+TwYW/Fa0Nim5Jgbnd0MGWmA3sXc4eEI9DTrRhRqFTwppEAz8CCgx++fxI8ppkriaysct2XzCjQeAzE08Pw8BhZvPiT90PCTCuesc6FBOXUPgokQCHhKSJJLFiwUA4dckKio4PPyd6dhFnw/O6IhC0BV/0Rzdj8iqdFgWnEPo4P8qOjY+Sjjz4CieOOSFwDkA6Q6HkLpCMz1YrfrdZW3Rz5nTd0RcIRcNMYhezsClUlkwDJMAo830pLy5E9e/aAxAKo01HbIxurrFnzrZw+/ase5Xd28gkoH+FOgXQGvLGxRZ8asV/iQxh+LylxHQlH4E0jiYICQ4VMEpxX2KcFB4fA2evlz39eALybILWBuqdNkqDEHjt2HqF+ic3F0GQe7RMoc91MFRO07eMumvnoit+ZTtzknj2bXT3YSmpxsUVnl6NHj6OYF8vf/rZEdu3yxCgQJi0tLUqAa5LE8eM/4yYFmrO8sZG7xdqlVlU1KHAex5iAnRlJcDeeC4miolp0AzXo056o95k+nCFOn/bF3vECPV7/BHxjTZLw9vZXWeMGw+Iye6O0NJLhQGJoN1sN43HVFHA++bElQbCzIcE2g97Pzi4F4PPw/qcg8Il8880uuX07BJnQoKOC/ZpGgl0rw8ht3pwV6B3egMRoHE7M3ZQHx3wGwdQjsZqaBvx7dpHIyqKs1qD7TZUtW7YB/McYflYhlU7gGonaDjlbkyROnPBHGF+plJGIaYZCGKRMY92QHAmxyzQJsaiLiqoVuLskMjM57LzCZ7FcvnwTwD3k44+XyPr12+Xq1etI5crJgzlna5LEf/7jDyWo1bbB/mmPLSlbsyXGfp/pQGA82bDtYG1J2A5BL15wZ66QyMgE2bfvX/KXv/xdPv10hRw8eAQt/1PtpN1Z00iYuW4+pjXIWN4yV+SYgq4OBRITGY1SeL8K3/Pl0qXr8sUXy+XDD/8O6dwqv/xyEXX3ckbv265JEmfPXpjYtNomZdRiadY8N0mZxv7ImZGEs1mCBCgYeXnVmA6T4fGj8te//g8K+AvZu/d7RCRymnS6uz7gKz70ANWAJ9+csc3Wg3NCY6OxqdkaidE4HHGD5P5g/oy14YxEZmY5UqhSbty4Kxs3bkX6/ENWrlwvZ874gliuniDOZn3AF6M8PNbKtm370ZfEIZRlIMBXPMdx0THkJcdTEprauRktq7VF6qoapaKoThrq2qS5+Y1G0tmOTfA80z1+/ByGmiUo3k/0hcWQkLuIev0EnNmtD5h7AQE3ZcWKDQitBzy0V86d85f798Nx4xyAboM28+heMDDxOR128PYesb5uleup1+RB3kVJL4kVS229tLd1a0rZkuAAlJlZAZ0Pl82bd8if/vSRblze3mfw8wyX0unu0tcieCz/7FmyXLhwWbf1xYtXoND+V1av3gqdPgnpuyIpKcn6Ypa5evsGJKosQo4Ub5ZN6Qvkj+xoaW3pREpZlQTTKT29FEQKxcfHVz7/fBWcxI1rp1y7dgOpWDtxpbmvaW/Z8JTDYqkD4DS5fj1IPD29sOkshvcWgtAmFOIP4ufnD/mLlZbXBqHSvjKJa4uW6ja+kNsLEo16QpicXCR37vwhO3bsReosgmOW6wwQHx+P2d39F3fdWW+9KmQuHtnQW76+fhohvk/x4YeLUIyLIImrsKvuQJROSWxUnHRYp0Cxdnh06ed3WZYvp/cXQP2+kd9+C8BQU6Gn5/O9nJLgYr1ERETAu/VofcP1DbSwsHCkxxn58st1iNKnEIUVsnbtRmxW+/QVu9TUNNm9+yDm4M9gyzSaERGRqKU3E1ed/+WSBE+5w8PDVWZ5HuvtfQLFzeP8HvT4NUirBMjjOVm3bitGxqVoGT6H99foWenKlZsQjV+wm+dP9v3va81I4tGjR7rphYYmYOaYeqHWXHwm8Rr1kZ6eoam3efMeyDWjch/K1jrxW+9zifwXMuX2k4SuPWQAAAAASUVORK5CYII=;fontSize=10;labelPosition=center;align=center;" vertex="1" parent="1">
          <mxGeometry x="380" y="391" width="30" height="40" as="geometry" />
        </mxCell>
        <mxCell id="-DjrFjEzPPp2w2y8W-10-27" value="" style="shape=image;verticalLabelPosition=top;labelBackgroundColor=none;verticalAlign=bottom;imageAspect=0;image=data:image/png,iVBORw0KGgoAAAANSUhEUgAAADEAAABBCAYAAAB4vkzdAAAAAXNSR0IArs4c6QAAAARnQU1BAACxjwv8YQUAAAAJcEhZcwAAFxEAABcRAcom8z8AABAISURBVGhD3Vr5W1RXts3/1d3pTr+0Q8wLJmocYhyjcWhHjE00toqKrQZiiCYaHEERFVSmKCDIDMqMzCBDAQUyyDwPu9falwtFWVWUgO+Hd75vf1Ui3LvWHtbZ+9z7gfw/WP8nJIaGBqW+vk4aGuqls7NDRkaGJ/5nftZ7J1FXVyOBgcGybt23smnTTjl9+icJCXkoqamZUlxcrOQ6OtplbGxk4i/efb03Ej09XZKQkCDbt3vKV1/tl59+CpFLlx7JiRNXZO/eU7Jq1T/ls8/Wy44d34mPj58EB4dKYmKKZGVlS01NtXR3d05caeb1XkgUFOSJn99FgNwghw/7S0REsrx+3S69vT1IqRbJzy+RmJg0uXUrBuQC5cgRX9myxUtJLVy4EsQPyJkz/vj/+xIXFy8vXmRLbW0N/r574g7T17ySYGrcvh0sGzfulg0bvCQo6ImUllbJwEAfItMtb968gYe7AaZXBgf71ZhKBJiVVQBiqfibKPH1vSoHDvjImjW7ZMGCFbJ06UbZtcsLxM4jNe8gFTMm7miseSExPj4mjx9Hw+s+4uGxBXl/RdLS8gG6U/r6eqW9vd2pdXV1gWCP9Pf3oeCHQKwPf9cuVVW1kpGRi+smyc2bYXLq1M+ye/e/kYbbkJ7bJTPzOepoTO8/ZxIlJcVInQvw/AHZv99XoqPTUcz1ANULL3cAaNtbwJ1ZW5vxuyTG1BsY6Jfh4UFcqwc/b5HCwnLx9w9ChHaIt7e3EueaNYnu7i65ciUARfpvXPSABAQ8xE0qAKBTAdgDfDcjGYMQU5CyXFhYitpKQQ3dkq+/3i5eXl6KgWtWJBITn8nBg8eQ+/9CUV6S5OR8FGwjLtqLm3bBo50AMHdjJBsbmyUpKQ+yHAunRSHqgZDrHXLo0OHZkbBaGyGHp6EkB2XnTh958CAVuWuR1tYWtaam5nmx5ubXcEQXRKFOoqLSoVKxcufOUxCJl/Png2ZHgrl579492bbNE+Yt587dhkxWQjY7cMNWqJIVddA4Z7NYGvVaFks9irpEwsKSoFYx2EPilACJvDOJ4eEhaH6B7NnjidT5Tr7//gJkMAc3oddbEerXuDkJzN0slia18vJaFQcCvn3biIAZhfv3n8nPP7Mm3CIxDpBW+fXX3yFnO8XT008uXw6FElXDU83IfwN8bS096BiUu2axWHHNJqmubpTs7DJ4P1HBm9437e7dBAkNTbQhccg5iY6ON9gln6LP2Y68Pyk//hgMTS4FYONmNTWNuGHDvBidwGuWldVKfHyuAiUBEzjTybQHD5L10yRx+PCRt0mws3z58iX096ysXLkLn9cR1gwFTe/zho6AzNZ4vVevGrBTl8LDSQqanjY8PgXelsTDhykTNbFTjh71AYkexa4kqDpBQSHy5Zdbofs/yu+/R0peXpXmKMNcVVU/b0bgTKHSUno/B5430sYeNImQFL8TfHh4KpyaqZF4i0R/fz+03lvWrt0HDb6LzjMHN6PXG1FkdQj1/Fl5uQWfFs39P/7IRMEauT4dvAH80aMUWCrAp+F3n8uTJy8mSaxf/8/pJKzWJlm9ertcuHAPHmqBZLYp+IKCKqRXtWq1AcAwe2DuWmVlvV4vISHXYc5PgZ8C/vjxCzXzO0mw612z5pvpJBobG9H3eEINYvQHg4PDKO5upFibRoRFV1j4Sq2oqGaSzExmgqf3Kyrq5fnzUgVBubT3Po3pEhGRPgmYn9ONJJ7Lb7/dkWXLvkb2nLInsR818RjFbXSF5hoaGkEv1ItN7Q3Sq0mJMEL8pFdJypkVF9cAvAWyXIc2JQ8an+jU+xERU563B0/i5venT3O1o122bIOSYPfL5ZKE7RoeHgXzPu2L6upeK4nc3EoIQCV27yqQe4VPw/i9sLAaw0yZgqDm37v3tvcJPjIyYxpo0+h1fsbF5YDcc5XgpKRCuXFjDiRs18jIKOaEAaRdD+S3Vb3OdCEhgmeknj3LV4Vh38Od1p5AZKSr1DG8Hh+fhygWoI7ylAC/zxsJ2zU6OobeahBp14c6ateo0MNMHcqnmTKmUe+deZ+E6HGCJuCkpILJT5IwIhEqK1asA4mT7tXEu67x8XH0U20TBGKnESD4qKiMaTluT8AevK1NkQiT5ctdRIJe5WLecy5gHbzramnpUPD37k2lkEnAFXimnz1wW7Ml4TKdxsbG1ZuxsSly8uQNlcOCgkoMKF1ImSH9v5kWlYwkzDowCDj3/pMnWW4RSE5+CTPSaenS1fLDDyddk4iOTpLvvruADeWynDlzE93sA9yUh13VGqH+/qHJId1c5r/NSJgk2DI4SiF3wZtGEpwxSMLDY5VzEqOjhqep7deuRWFjCcU2f187WfZTVBp6lh4pLa3RCPX3D6pajY2NqgOamtoUPEmwdXBEICbGNQFb8CaBlJQid0g80ZpgxnR28pyoXye33NwKhD0DqWU0alScR4+4OVFJ8lRWh4aGNRKjo6Pa9RL8gwcpb4E3CGQ7BG6aPYGUFCMCHAdmJHHrVpSmEy0uLgs74xNcoBBdpxVSxkOubt212TqnphaiGPNROzmSnl6MVmVICYyMjCgJthD2hWxGxFkEHIE3CbhBwoqucB/SJWQiEuPQ+aeY5vzFy+tXpNId7XXS0l4CoFV6e0moS6W0spKdbv0kieHhYackYmOzdfd1h0RqqpE6tjYjiXXr9umwMTxsnEzzkIrHIz4+N+TUqety7lywXLwYptGJjc3SFGtoaEXa9WjaDQ0NqTkjQRUygdqDN3/uigBtxnRau3YnCjhIGz5GgqlDFWL3mZKSD4VJ1v4nMDBGZZftRFxcrl60rKxed+zBwQF8DkzWhEnCVRrZgndFgGaSYAPoUGK/+upbJUGVIQmmTkhIHFQhH6CatcDZmpeU1GidsBbo3adP83DhYqRYH0jwuLFfx04Cpxm/k6OtxEwE0tKKp4G2N5JITzcisWTJMpA4YU9i2zQSlMADBy7KsWMBkNpoeDYZBV0GgM2IEHfzbi149kkcY3t6etEQ9qmRBBXIJJGYmK8g50KA9vx5meTkVCASobJwoYc9CatG4vz561oTLO7s7HI5ezYIRX0bk9RdCQiIUAmm/sfFvdBWu7a2SSPEeYMX45E9P5lO3MiYQmYXam+2BKhujkDbG0lwlgkMDJNFi5Y6I3FVc5ua39PTp4djubnlWsjcuKYmMqON4IbHC1dWNugpNuuoq4sRqtd5mCQYBVcEaI4A21tmZgkibswpM5Lo7x+YUBruwsOa4319/WgIO1DkdbhYscokwTEFWIhMqc7OLk0x7uA80WA6ch6wJ2BPgjnuCLStcU7h8MXs4L3cJsFzf+OJTg+sV41keOpNQnV1PG606HTHPDXrhIfAJMFIOOqNbAkwko5A2xojTQKcEM2JcUYSVBkWJ9PCNAKjtbfT05Rew+P8WWtrpx6s8ZP/Z5JgJLij2xKwJ+EItL3RQQYBzvXVNiScFvZV/JBe5xxtgHTHTEKmOSNhS8DsSF0ZwdtGwBh7q6FO96FOi+TwYW/Fa0Nim5Jgbnd0MGWmA3sXc4eEI9DTrRhRqFTwppEAz8CCgx++fxI8ppkriaysct2XzCjQeAzE08Pw8BhZvPiT90PCTCuesc6FBOXUPgokQCHhKSJJLFiwUA4dckKio4PPyd6dhFnw/O6IhC0BV/0Rzdj8iqdFgWnEPo4P8qOjY+Sjjz4CieOOSFwDkA6Q6HkLpCMz1YrfrdZW3Rz5nTd0RcIRcNMYhezsClUlkwDJMAo830pLy5E9e/aAxAKo01HbIxurrFnzrZw+/ase5Xd28gkoH+FOgXQGvLGxRZ8asV/iQxh+LylxHQlH4E0jiYICQ4VMEpxX2KcFB4fA2evlz39eALybILWBuqdNkqDEHjt2HqF+ic3F0GQe7RMoc91MFRO07eMumvnoit+ZTtzknj2bXT3YSmpxsUVnl6NHj6OYF8vf/rZEdu3yxCgQJi0tLUqAa5LE8eM/4yYFmrO8sZG7xdqlVlU1KHAex5iAnRlJcDeeC4miolp0AzXo056o95k+nCFOn/bF3vECPV7/BHxjTZLw9vZXWeMGw+Iye6O0NJLhQGJoN1sN43HVFHA++bElQbCzIcE2g97Pzi4F4PPw/qcg8Il8880uuX07BJnQoKOC/ZpGgl0rw8ht3pwV6B3egMRoHE7M3ZQHx3wGwdQjsZqaBvx7dpHIyqKs1qD7TZUtW7YB/McYflYhlU7gGonaDjlbkyROnPBHGF+plJGIaYZCGKRMY92QHAmxyzQJsaiLiqoVuLskMjM57LzCZ7FcvnwTwD3k44+XyPr12+Xq1etI5crJgzlna5LEf/7jDyWo1bbB/mmPLSlbsyXGfp/pQGA82bDtYG1J2A5BL15wZ66QyMgE2bfvX/KXv/xdPv10hRw8eAQt/1PtpN1Z00iYuW4+pjXIWN4yV+SYgq4OBRITGY1SeL8K3/Pl0qXr8sUXy+XDD/8O6dwqv/xyEXX3ckbv265JEmfPXpjYtNomZdRiadY8N0mZxv7ImZGEs1mCBCgYeXnVmA6T4fGj8te//g8K+AvZu/d7RCRymnS6uz7gKz70ANWAJ9+csc3Wg3NCY6OxqdkaidE4HHGD5P5g/oy14YxEZmY5UqhSbty4Kxs3bkX6/ENWrlwvZ874gliuniDOZn3AF6M8PNbKtm370ZfEIZRlIMBXPMdx0THkJcdTEprauRktq7VF6qoapaKoThrq2qS5+Y1G0tmOTfA80z1+/ByGmiUo3k/0hcWQkLuIev0EnNmtD5h7AQE3ZcWKDQitBzy0V86d85f798Nx4xyAboM28+heMDDxOR128PYesb5uleup1+RB3kVJL4kVS229tLd1a0rZkuAAlJlZAZ0Pl82bd8if/vSRblze3mfw8wyX0unu0tcieCz/7FmyXLhwWbf1xYtXoND+V1av3gqdPgnpuyIpKcn6Ypa5evsGJKosQo4Ub5ZN6Qvkj+xoaW3pREpZlQTTKT29FEQKxcfHVz7/fBWcxI1rp1y7dgOpWDtxpbmvaW/Z8JTDYqkD4DS5fj1IPD29sOkshvcWgtAmFOIP4ufnD/mLlZbXBqHSvjKJa4uW6ja+kNsLEo16QpicXCR37vwhO3bsReosgmOW6wwQHx+P2d39F3fdWW+9KmQuHtnQW76+fhohvk/x4YeLUIyLIImrsKvuQJROSWxUnHRYp0Cxdnh06ed3WZYvp/cXQP2+kd9+C8BQU6Gn5/O9nJLgYr1ERETAu/VofcP1DbSwsHCkxxn58st1iNKnEIUVsnbtRmxW+/QVu9TUNNm9+yDm4M9gyzSaERGRqKU3E1ed/+WSBE+5w8PDVWZ5HuvtfQLFzeP8HvT4NUirBMjjOVm3bitGxqVoGT6H99foWenKlZsQjV+wm+dP9v3va81I4tGjR7rphYYmYOaYeqHWXHwm8Rr1kZ6eoam3efMeyDWjch/K1jrxW+9zifwXMuX2k4SuPWQAAAAASUVORK5CYII=;fontSize=10;labelPosition=center;align=center;" vertex="1" parent="1">
          <mxGeometry x="405" y="350" width="30" height="40" as="geometry" />
        </mxCell>
        <mxCell id="-DjrFjEzPPp2w2y8W-10-28" value="" style="rounded=0;whiteSpace=wrap;html=1;fillColor=none;" vertex="1" parent="1">
          <mxGeometry x="530" y="280" width="200" height="170" as="geometry" />
        </mxCell>
        <mxCell id="-DjrFjEzPPp2w2y8W-10-29" value="DR Zone" style="rounded=0;whiteSpace=wrap;html=1;fillColor=#000075;fontColor=#ffffff;fontStyle=1;fontSize=16;" vertex="1" parent="1">
          <mxGeometry x="530" y="280" width="200" height="40" as="geometry" />
        </mxCell>
        <mxCell id="-DjrFjEzPPp2w2y8W-10-30" value="MGR" style="rounded=1;whiteSpace=wrap;html=1;dashed=1;dashPattern=1 1;strokeWidth=2;strokeColor=#EA6B66;fillColor=none;labelPosition=center;verticalLabelPosition=top;align=center;verticalAlign=bottom;" vertex="1" parent="1">
          <mxGeometry x="570" y="340" width="120" height="100" as="geometry" />
        </mxCell>
        <mxCell id="-DjrFjEzPPp2w2y8W-10-31" value="" style="shape=image;verticalLabelPosition=top;labelBackgroundColor=none;verticalAlign=bottom;imageAspect=0;image=data:image/png,iVBORw0KGgoAAAANSUhEUgAAADEAAABBCAYAAAB4vkzdAAAAAXNSR0IArs4c6QAAAARnQU1BAACxjwv8YQUAAAAJcEhZcwAAFxEAABcRAcom8z8AABAISURBVGhD3Vr5W1RXts3/1d3pTr+0Q8wLJmocYhyjcWhHjE00toqKrQZiiCYaHEERFVSmKCDIDMqMzCBDAQUyyDwPu9falwtFWVWUgO+Hd75vf1Ui3LvWHtbZ+9z7gfw/WP8nJIaGBqW+vk4aGuqls7NDRkaGJ/5nftZ7J1FXVyOBgcGybt23smnTTjl9+icJCXkoqamZUlxcrOQ6OtplbGxk4i/efb03Ej09XZKQkCDbt3vKV1/tl59+CpFLlx7JiRNXZO/eU7Jq1T/ls8/Wy44d34mPj58EB4dKYmKKZGVlS01NtXR3d05caeb1XkgUFOSJn99FgNwghw/7S0REsrx+3S69vT1IqRbJzy+RmJg0uXUrBuQC5cgRX9myxUtJLVy4EsQPyJkz/vj/+xIXFy8vXmRLbW0N/r574g7T17ySYGrcvh0sGzfulg0bvCQo6ImUllbJwEAfItMtb968gYe7AaZXBgf71ZhKBJiVVQBiqfibKPH1vSoHDvjImjW7ZMGCFbJ06UbZtcsLxM4jNe8gFTMm7miseSExPj4mjx9Hw+s+4uGxBXl/RdLS8gG6U/r6eqW9vd2pdXV1gWCP9Pf3oeCHQKwPf9cuVVW1kpGRi+smyc2bYXLq1M+ye/e/kYbbkJ7bJTPzOepoTO8/ZxIlJcVInQvw/AHZv99XoqPTUcz1ANULL3cAaNtbwJ1ZW5vxuyTG1BsY6Jfh4UFcqwc/b5HCwnLx9w9ChHaIt7e3EueaNYnu7i65ciUARfpvXPSABAQ8xE0qAKBTAdgDfDcjGYMQU5CyXFhYitpKQQ3dkq+/3i5eXl6KgWtWJBITn8nBg8eQ+/9CUV6S5OR8FGwjLtqLm3bBo50AMHdjJBsbmyUpKQ+yHAunRSHqgZDrHXLo0OHZkbBaGyGHp6EkB2XnTh958CAVuWuR1tYWtaam5nmx5ubXcEQXRKFOoqLSoVKxcufOUxCJl/Png2ZHgrl579492bbNE+Yt587dhkxWQjY7cMNWqJIVddA4Z7NYGvVaFks9irpEwsKSoFYx2EPilACJvDOJ4eEhaH6B7NnjidT5Tr7//gJkMAc3oddbEerXuDkJzN0slia18vJaFQcCvn3biIAZhfv3n8nPP7Mm3CIxDpBW+fXX3yFnO8XT008uXw6FElXDU83IfwN8bS096BiUu2axWHHNJqmubpTs7DJ4P1HBm9437e7dBAkNTbQhccg5iY6ON9gln6LP2Y68Pyk//hgMTS4FYONmNTWNuGHDvBidwGuWldVKfHyuAiUBEzjTybQHD5L10yRx+PCRt0mws3z58iX096ysXLkLn9cR1gwFTe/zho6AzNZ4vVevGrBTl8LDSQqanjY8PgXelsTDhykTNbFTjh71AYkexa4kqDpBQSHy5Zdbofs/yu+/R0peXpXmKMNcVVU/b0bgTKHSUno/B5430sYeNImQFL8TfHh4KpyaqZF4i0R/fz+03lvWrt0HDb6LzjMHN6PXG1FkdQj1/Fl5uQWfFs39P/7IRMEauT4dvAH80aMUWCrAp+F3n8uTJy8mSaxf/8/pJKzWJlm9ertcuHAPHmqBZLYp+IKCKqRXtWq1AcAwe2DuWmVlvV4vISHXYc5PgZ8C/vjxCzXzO0mw612z5pvpJBobG9H3eEINYvQHg4PDKO5upFibRoRFV1j4Sq2oqGaSzExmgqf3Kyrq5fnzUgVBubT3Po3pEhGRPgmYn9ONJJ7Lb7/dkWXLvkb2nLInsR818RjFbXSF5hoaGkEv1ItN7Q3Sq0mJMEL8pFdJypkVF9cAvAWyXIc2JQ8an+jU+xERU563B0/i5venT3O1o122bIOSYPfL5ZKE7RoeHgXzPu2L6upeK4nc3EoIQCV27yqQe4VPw/i9sLAaw0yZgqDm37v3tvcJPjIyYxpo0+h1fsbF5YDcc5XgpKRCuXFjDiRs18jIKOaEAaRdD+S3Vb3OdCEhgmeknj3LV4Vh38Od1p5AZKSr1DG8Hh+fhygWoI7ylAC/zxsJ2zU6OobeahBp14c6ateo0MNMHcqnmTKmUe+deZ+E6HGCJuCkpILJT5IwIhEqK1asA4mT7tXEu67x8XH0U20TBGKnESD4qKiMaTluT8AevK1NkQiT5ctdRIJe5WLecy5gHbzramnpUPD37k2lkEnAFXimnz1wW7Ml4TKdxsbG1ZuxsSly8uQNlcOCgkoMKF1ImSH9v5kWlYwkzDowCDj3/pMnWW4RSE5+CTPSaenS1fLDDyddk4iOTpLvvruADeWynDlzE93sA9yUh13VGqH+/qHJId1c5r/NSJgk2DI4SiF3wZtGEpwxSMLDY5VzEqOjhqep7deuRWFjCcU2f187WfZTVBp6lh4pLa3RCPX3D6pajY2NqgOamtoUPEmwdXBEICbGNQFb8CaBlJQid0g80ZpgxnR28pyoXye33NwKhD0DqWU0alScR4+4OVFJ8lRWh4aGNRKjo6Pa9RL8gwcpb4E3CGQ7BG6aPYGUFCMCHAdmJHHrVpSmEy0uLgs74xNcoBBdpxVSxkOubt212TqnphaiGPNROzmSnl6MVmVICYyMjCgJthD2hWxGxFkEHIE3CbhBwoqucB/SJWQiEuPQ+aeY5vzFy+tXpNId7XXS0l4CoFV6e0moS6W0spKdbv0kieHhYackYmOzdfd1h0RqqpE6tjYjiXXr9umwMTxsnEzzkIrHIz4+N+TUqety7lywXLwYptGJjc3SFGtoaEXa9WjaDQ0NqTkjQRUygdqDN3/uigBtxnRau3YnCjhIGz5GgqlDFWL3mZKSD4VJ1v4nMDBGZZftRFxcrl60rKxed+zBwQF8DkzWhEnCVRrZgndFgGaSYAPoUGK/+upbJUGVIQmmTkhIHFQhH6CatcDZmpeU1GidsBbo3adP83DhYqRYH0jwuLFfx04Cpxm/k6OtxEwE0tKKp4G2N5JITzcisWTJMpA4YU9i2zQSlMADBy7KsWMBkNpoeDYZBV0GgM2IEHfzbi149kkcY3t6etEQ9qmRBBXIJJGYmK8g50KA9vx5meTkVCASobJwoYc9CatG4vz561oTLO7s7HI5ezYIRX0bk9RdCQiIUAmm/sfFvdBWu7a2SSPEeYMX45E9P5lO3MiYQmYXam+2BKhujkDbG0lwlgkMDJNFi5Y6I3FVc5ua39PTp4djubnlWsjcuKYmMqON4IbHC1dWNugpNuuoq4sRqtd5mCQYBVcEaI4A21tmZgkibswpM5Lo7x+YUBruwsOa4319/WgIO1DkdbhYscokwTEFWIhMqc7OLk0x7uA80WA6ch6wJ2BPgjnuCLStcU7h8MXs4L3cJsFzf+OJTg+sV41keOpNQnV1PG606HTHPDXrhIfAJMFIOOqNbAkwko5A2xojTQKcEM2JcUYSVBkWJ9PCNAKjtbfT05Rew+P8WWtrpx6s8ZP/Z5JgJLij2xKwJ+EItL3RQQYBzvXVNiScFvZV/JBe5xxtgHTHTEKmOSNhS8DsSF0ZwdtGwBh7q6FO96FOi+TwYW/Fa0Nim5Jgbnd0MGWmA3sXc4eEI9DTrRhRqFTwppEAz8CCgx++fxI8ppkriaysct2XzCjQeAzE08Pw8BhZvPiT90PCTCuesc6FBOXUPgokQCHhKSJJLFiwUA4dckKio4PPyd6dhFnw/O6IhC0BV/0Rzdj8iqdFgWnEPo4P8qOjY+Sjjz4CieOOSFwDkA6Q6HkLpCMz1YrfrdZW3Rz5nTd0RcIRcNMYhezsClUlkwDJMAo830pLy5E9e/aAxAKo01HbIxurrFnzrZw+/ase5Xd28gkoH+FOgXQGvLGxRZ8asV/iQxh+LylxHQlH4E0jiYICQ4VMEpxX2KcFB4fA2evlz39eALybILWBuqdNkqDEHjt2HqF+ic3F0GQe7RMoc91MFRO07eMumvnoit+ZTtzknj2bXT3YSmpxsUVnl6NHj6OYF8vf/rZEdu3yxCgQJi0tLUqAa5LE8eM/4yYFmrO8sZG7xdqlVlU1KHAex5iAnRlJcDeeC4miolp0AzXo056o95k+nCFOn/bF3vECPV7/BHxjTZLw9vZXWeMGw+Iye6O0NJLhQGJoN1sN43HVFHA++bElQbCzIcE2g97Pzi4F4PPw/qcg8Il8880uuX07BJnQoKOC/ZpGgl0rw8ht3pwV6B3egMRoHE7M3ZQHx3wGwdQjsZqaBvx7dpHIyqKs1qD7TZUtW7YB/McYflYhlU7gGonaDjlbkyROnPBHGF+plJGIaYZCGKRMY92QHAmxyzQJsaiLiqoVuLskMjM57LzCZ7FcvnwTwD3k44+XyPr12+Xq1etI5crJgzlna5LEf/7jDyWo1bbB/mmPLSlbsyXGfp/pQGA82bDtYG1J2A5BL15wZ66QyMgE2bfvX/KXv/xdPv10hRw8eAQt/1PtpN1Z00iYuW4+pjXIWN4yV+SYgq4OBRITGY1SeL8K3/Pl0qXr8sUXy+XDD/8O6dwqv/xyEXX3ckbv265JEmfPXpjYtNomZdRiadY8N0mZxv7ImZGEs1mCBCgYeXnVmA6T4fGj8te//g8K+AvZu/d7RCRymnS6uz7gKz70ANWAJ9+csc3Wg3NCY6OxqdkaidE4HHGD5P5g/oy14YxEZmY5UqhSbty4Kxs3bkX6/ENWrlwvZ874gliuniDOZn3AF6M8PNbKtm370ZfEIZRlIMBXPMdx0THkJcdTEprauRktq7VF6qoapaKoThrq2qS5+Y1G0tmOTfA80z1+/ByGmiUo3k/0hcWQkLuIev0EnNmtD5h7AQE3ZcWKDQitBzy0V86d85f798Nx4xyAboM28+heMDDxOR128PYesb5uleup1+RB3kVJL4kVS229tLd1a0rZkuAAlJlZAZ0Pl82bd8if/vSRblze3mfw8wyX0unu0tcieCz/7FmyXLhwWbf1xYtXoND+V1av3gqdPgnpuyIpKcn6Ypa5evsGJKosQo4Ub5ZN6Qvkj+xoaW3pREpZlQTTKT29FEQKxcfHVz7/fBWcxI1rp1y7dgOpWDtxpbmvaW/Z8JTDYqkD4DS5fj1IPD29sOkshvcWgtAmFOIP4ufnD/mLlZbXBqHSvjKJa4uW6ja+kNsLEo16QpicXCR37vwhO3bsReosgmOW6wwQHx+P2d39F3fdWW+9KmQuHtnQW76+fhohvk/x4YeLUIyLIImrsKvuQJROSWxUnHRYp0Cxdnh06ed3WZYvp/cXQP2+kd9+C8BQU6Gn5/O9nJLgYr1ERETAu/VofcP1DbSwsHCkxxn58st1iNKnEIUVsnbtRmxW+/QVu9TUNNm9+yDm4M9gyzSaERGRqKU3E1ed/+WSBE+5w8PDVWZ5HuvtfQLFzeP8HvT4NUirBMjjOVm3bitGxqVoGT6H99foWenKlZsQjV+wm+dP9v3va81I4tGjR7rphYYmYOaYeqHWXHwm8Rr1kZ6eoam3efMeyDWjch/K1jrxW+9zifwXMuX2k4SuPWQAAAAASUVORK5CYII=;fontSize=10;labelPosition=center;align=center;" vertex="1" parent="1">
          <mxGeometry x="640" y="391" width="30" height="40" as="geometry" />
        </mxCell>
        <mxCell id="-DjrFjEzPPp2w2y8W-10-32" value="" style="shape=image;verticalLabelPosition=top;labelBackgroundColor=none;verticalAlign=bottom;imageAspect=0;image=data:image/png,iVBORw0KGgoAAAANSUhEUgAAADEAAABBCAYAAAB4vkzdAAAAAXNSR0IArs4c6QAAAARnQU1BAACxjwv8YQUAAAAJcEhZcwAAFxEAABcRAcom8z8AABAISURBVGhD3Vr5W1RXts3/1d3pTr+0Q8wLJmocYhyjcWhHjE00toqKrQZiiCYaHEERFVSmKCDIDMqMzCBDAQUyyDwPu9falwtFWVWUgO+Hd75vf1Ui3LvWHtbZ+9z7gfw/WP8nJIaGBqW+vk4aGuqls7NDRkaGJ/5nftZ7J1FXVyOBgcGybt23smnTTjl9+icJCXkoqamZUlxcrOQ6OtplbGxk4i/efb03Ej09XZKQkCDbt3vKV1/tl59+CpFLlx7JiRNXZO/eU7Jq1T/ls8/Wy44d34mPj58EB4dKYmKKZGVlS01NtXR3d05caeb1XkgUFOSJn99FgNwghw/7S0REsrx+3S69vT1IqRbJzy+RmJg0uXUrBuQC5cgRX9myxUtJLVy4EsQPyJkz/vj/+xIXFy8vXmRLbW0N/r574g7T17ySYGrcvh0sGzfulg0bvCQo6ImUllbJwEAfItMtb968gYe7AaZXBgf71ZhKBJiVVQBiqfibKPH1vSoHDvjImjW7ZMGCFbJ06UbZtcsLxM4jNe8gFTMm7miseSExPj4mjx9Hw+s+4uGxBXl/RdLS8gG6U/r6eqW9vd2pdXV1gWCP9Pf3oeCHQKwPf9cuVVW1kpGRi+smyc2bYXLq1M+ye/e/kYbbkJ7bJTPzOepoTO8/ZxIlJcVInQvw/AHZv99XoqPTUcz1ANULL3cAaNtbwJ1ZW5vxuyTG1BsY6Jfh4UFcqwc/b5HCwnLx9w9ChHaIt7e3EueaNYnu7i65ciUARfpvXPSABAQ8xE0qAKBTAdgDfDcjGYMQU5CyXFhYitpKQQ3dkq+/3i5eXl6KgWtWJBITn8nBg8eQ+/9CUV6S5OR8FGwjLtqLm3bBo50AMHdjJBsbmyUpKQ+yHAunRSHqgZDrHXLo0OHZkbBaGyGHp6EkB2XnTh958CAVuWuR1tYWtaam5nmx5ubXcEQXRKFOoqLSoVKxcufOUxCJl/Png2ZHgrl579492bbNE+Yt587dhkxWQjY7cMNWqJIVddA4Z7NYGvVaFks9irpEwsKSoFYx2EPilACJvDOJ4eEhaH6B7NnjidT5Tr7//gJkMAc3oddbEerXuDkJzN0slia18vJaFQcCvn3biIAZhfv3n8nPP7Mm3CIxDpBW+fXX3yFnO8XT008uXw6FElXDU83IfwN8bS096BiUu2axWHHNJqmubpTs7DJ4P1HBm9437e7dBAkNTbQhccg5iY6ON9gln6LP2Y68Pyk//hgMTS4FYONmNTWNuGHDvBidwGuWldVKfHyuAiUBEzjTybQHD5L10yRx+PCRt0mws3z58iX096ysXLkLn9cR1gwFTe/zho6AzNZ4vVevGrBTl8LDSQqanjY8PgXelsTDhykTNbFTjh71AYkexa4kqDpBQSHy5Zdbofs/yu+/R0peXpXmKMNcVVU/b0bgTKHSUno/B5430sYeNImQFL8TfHh4KpyaqZF4i0R/fz+03lvWrt0HDb6LzjMHN6PXG1FkdQj1/Fl5uQWfFs39P/7IRMEauT4dvAH80aMUWCrAp+F3n8uTJy8mSaxf/8/pJKzWJlm9ertcuHAPHmqBZLYp+IKCKqRXtWq1AcAwe2DuWmVlvV4vISHXYc5PgZ8C/vjxCzXzO0mw612z5pvpJBobG9H3eEINYvQHg4PDKO5upFibRoRFV1j4Sq2oqGaSzExmgqf3Kyrq5fnzUgVBubT3Po3pEhGRPgmYn9ONJJ7Lb7/dkWXLvkb2nLInsR818RjFbXSF5hoaGkEv1ItN7Q3Sq0mJMEL8pFdJypkVF9cAvAWyXIc2JQ8an+jU+xERU563B0/i5venT3O1o122bIOSYPfL5ZKE7RoeHgXzPu2L6upeK4nc3EoIQCV27yqQe4VPw/i9sLAaw0yZgqDm37v3tvcJPjIyYxpo0+h1fsbF5YDcc5XgpKRCuXFjDiRs18jIKOaEAaRdD+S3Vb3OdCEhgmeknj3LV4Vh38Od1p5AZKSr1DG8Hh+fhygWoI7ylAC/zxsJ2zU6OobeahBp14c6ateo0MNMHcqnmTKmUe+deZ+E6HGCJuCkpILJT5IwIhEqK1asA4mT7tXEu67x8XH0U20TBGKnESD4qKiMaTluT8AevK1NkQiT5ctdRIJe5WLecy5gHbzramnpUPD37k2lkEnAFXimnz1wW7Ml4TKdxsbG1ZuxsSly8uQNlcOCgkoMKF1ImSH9v5kWlYwkzDowCDj3/pMnWW4RSE5+CTPSaenS1fLDDyddk4iOTpLvvruADeWynDlzE93sA9yUh13VGqH+/qHJId1c5r/NSJgk2DI4SiF3wZtGEpwxSMLDY5VzEqOjhqep7deuRWFjCcU2f187WfZTVBp6lh4pLa3RCPX3D6pajY2NqgOamtoUPEmwdXBEICbGNQFb8CaBlJQid0g80ZpgxnR28pyoXye33NwKhD0DqWU0alScR4+4OVFJ8lRWh4aGNRKjo6Pa9RL8gwcpb4E3CGQ7BG6aPYGUFCMCHAdmJHHrVpSmEy0uLgs74xNcoBBdpxVSxkOubt212TqnphaiGPNROzmSnl6MVmVICYyMjCgJthD2hWxGxFkEHIE3CbhBwoqucB/SJWQiEuPQ+aeY5vzFy+tXpNId7XXS0l4CoFV6e0moS6W0spKdbv0kieHhYackYmOzdfd1h0RqqpE6tjYjiXXr9umwMTxsnEzzkIrHIz4+N+TUqety7lywXLwYptGJjc3SFGtoaEXa9WjaDQ0NqTkjQRUygdqDN3/uigBtxnRau3YnCjhIGz5GgqlDFWL3mZKSD4VJ1v4nMDBGZZftRFxcrl60rKxed+zBwQF8DkzWhEnCVRrZgndFgGaSYAPoUGK/+upbJUGVIQmmTkhIHFQhH6CatcDZmpeU1GidsBbo3adP83DhYqRYH0jwuLFfx04Cpxm/k6OtxEwE0tKKp4G2N5JITzcisWTJMpA4YU9i2zQSlMADBy7KsWMBkNpoeDYZBV0GgM2IEHfzbi149kkcY3t6etEQ9qmRBBXIJJGYmK8g50KA9vx5meTkVCASobJwoYc9CatG4vz561oTLO7s7HI5ezYIRX0bk9RdCQiIUAmm/sfFvdBWu7a2SSPEeYMX45E9P5lO3MiYQmYXam+2BKhujkDbG0lwlgkMDJNFi5Y6I3FVc5ua39PTp4djubnlWsjcuKYmMqON4IbHC1dWNugpNuuoq4sRqtd5mCQYBVcEaI4A21tmZgkibswpM5Lo7x+YUBruwsOa4319/WgIO1DkdbhYscokwTEFWIhMqc7OLk0x7uA80WA6ch6wJ2BPgjnuCLStcU7h8MXs4L3cJsFzf+OJTg+sV41keOpNQnV1PG606HTHPDXrhIfAJMFIOOqNbAkwko5A2xojTQKcEM2JcUYSVBkWJ9PCNAKjtbfT05Rew+P8WWtrpx6s8ZP/Z5JgJLij2xKwJ+EItL3RQQYBzvXVNiScFvZV/JBe5xxtgHTHTEKmOSNhS8DsSF0ZwdtGwBh7q6FO96FOi+TwYW/Fa0Nim5Jgbnd0MGWmA3sXc4eEI9DTrRhRqFTwppEAz8CCgx++fxI8ppkriaysct2XzCjQeAzE08Pw8BhZvPiT90PCTCuesc6FBOXUPgokQCHhKSJJLFiwUA4dckKio4PPyd6dhFnw/O6IhC0BV/0Rzdj8iqdFgWnEPo4P8qOjY+Sjjz4CieOOSFwDkA6Q6HkLpCMz1YrfrdZW3Rz5nTd0RcIRcNMYhezsClUlkwDJMAo830pLy5E9e/aAxAKo01HbIxurrFnzrZw+/ase5Xd28gkoH+FOgXQGvLGxRZ8asV/iQxh+LylxHQlH4E0jiYICQ4VMEpxX2KcFB4fA2evlz39eALybILWBuqdNkqDEHjt2HqF+ic3F0GQe7RMoc91MFRO07eMumvnoit+ZTtzknj2bXT3YSmpxsUVnl6NHj6OYF8vf/rZEdu3yxCgQJi0tLUqAa5LE8eM/4yYFmrO8sZG7xdqlVlU1KHAex5iAnRlJcDeeC4miolp0AzXo056o95k+nCFOn/bF3vECPV7/BHxjTZLw9vZXWeMGw+Iye6O0NJLhQGJoN1sN43HVFHA++bElQbCzIcE2g97Pzi4F4PPw/qcg8Il8880uuX07BJnQoKOC/ZpGgl0rw8ht3pwV6B3egMRoHE7M3ZQHx3wGwdQjsZqaBvx7dpHIyqKs1qD7TZUtW7YB/McYflYhlU7gGonaDjlbkyROnPBHGF+plJGIaYZCGKRMY92QHAmxyzQJsaiLiqoVuLskMjM57LzCZ7FcvnwTwD3k44+XyPr12+Xq1etI5crJgzlna5LEf/7jDyWo1bbB/mmPLSlbsyXGfp/pQGA82bDtYG1J2A5BL15wZ66QyMgE2bfvX/KXv/xdPv10hRw8eAQt/1PtpN1Z00iYuW4+pjXIWN4yV+SYgq4OBRITGY1SeL8K3/Pl0qXr8sUXy+XDD/8O6dwqv/xyEXX3ckbv265JEmfPXpjYtNomZdRiadY8N0mZxv7ImZGEs1mCBCgYeXnVmA6T4fGj8te//g8K+AvZu/d7RCRymnS6uz7gKz70ANWAJ9+csc3Wg3NCY6OxqdkaidE4HHGD5P5g/oy14YxEZmY5UqhSbty4Kxs3bkX6/ENWrlwvZ874gliuniDOZn3AF6M8PNbKtm370ZfEIZRlIMBXPMdx0THkJcdTEprauRktq7VF6qoapaKoThrq2qS5+Y1G0tmOTfA80z1+/ByGmiUo3k/0hcWQkLuIev0EnNmtD5h7AQE3ZcWKDQitBzy0V86d85f798Nx4xyAboM28+heMDDxOR128PYesb5uleup1+RB3kVJL4kVS229tLd1a0rZkuAAlJlZAZ0Pl82bd8if/vSRblze3mfw8wyX0unu0tcieCz/7FmyXLhwWbf1xYtXoND+V1av3gqdPgnpuyIpKcn6Ypa5evsGJKosQo4Ub5ZN6Qvkj+xoaW3pREpZlQTTKT29FEQKxcfHVz7/fBWcxI1rp1y7dgOpWDtxpbmvaW/Z8JTDYqkD4DS5fj1IPD29sOkshvcWgtAmFOIP4ufnD/mLlZbXBqHSvjKJa4uW6ja+kNsLEo16QpicXCR37vwhO3bsReosgmOW6wwQHx+P2d39F3fdWW+9KmQuHtnQW76+fhohvk/x4YeLUIyLIImrsKvuQJROSWxUnHRYp0Cxdnh06ed3WZYvp/cXQP2+kd9+C8BQU6Gn5/O9nJLgYr1ERETAu/VofcP1DbSwsHCkxxn58st1iNKnEIUVsnbtRmxW+/QVu9TUNNm9+yDm4M9gyzSaERGRqKU3E1ed/+WSBE+5w8PDVWZ5HuvtfQLFzeP8HvT4NUirBMjjOVm3bitGxqVoGT6H99foWenKlZsQjV+wm+dP9v3va81I4tGjR7rphYYmYOaYeqHWXHwm8Rr1kZ6eoam3efMeyDWjch/K1jrxW+9zifwXMuX2k4SuPWQAAAAASUVORK5CYII=;fontSize=10;labelPosition=center;align=center;" vertex="1" parent="1">
          <mxGeometry x="590" y="391" width="30" height="40" as="geometry" />
        </mxCell>
        <mxCell id="-DjrFjEzPPp2w2y8W-10-33" value="" style="shape=image;verticalLabelPosition=top;labelBackgroundColor=none;verticalAlign=bottom;imageAspect=0;image=data:image/png,iVBORw0KGgoAAAANSUhEUgAAADEAAABBCAYAAAB4vkzdAAAAAXNSR0IArs4c6QAAAARnQU1BAACxjwv8YQUAAAAJcEhZcwAAFxEAABcRAcom8z8AABAISURBVGhD3Vr5W1RXts3/1d3pTr+0Q8wLJmocYhyjcWhHjE00toqKrQZiiCYaHEERFVSmKCDIDMqMzCBDAQUyyDwPu9falwtFWVWUgO+Hd75vf1Ui3LvWHtbZ+9z7gfw/WP8nJIaGBqW+vk4aGuqls7NDRkaGJ/5nftZ7J1FXVyOBgcGybt23smnTTjl9+icJCXkoqamZUlxcrOQ6OtplbGxk4i/efb03Ej09XZKQkCDbt3vKV1/tl59+CpFLlx7JiRNXZO/eU7Jq1T/ls8/Wy44d34mPj58EB4dKYmKKZGVlS01NtXR3d05caeb1XkgUFOSJn99FgNwghw/7S0REsrx+3S69vT1IqRbJzy+RmJg0uXUrBuQC5cgRX9myxUtJLVy4EsQPyJkz/vj/+xIXFy8vXmRLbW0N/r574g7T17ySYGrcvh0sGzfulg0bvCQo6ImUllbJwEAfItMtb968gYe7AaZXBgf71ZhKBJiVVQBiqfibKPH1vSoHDvjImjW7ZMGCFbJ06UbZtcsLxM4jNe8gFTMm7miseSExPj4mjx9Hw+s+4uGxBXl/RdLS8gG6U/r6eqW9vd2pdXV1gWCP9Pf3oeCHQKwPf9cuVVW1kpGRi+smyc2bYXLq1M+ye/e/kYbbkJ7bJTPzOepoTO8/ZxIlJcVInQvw/AHZv99XoqPTUcz1ANULL3cAaNtbwJ1ZW5vxuyTG1BsY6Jfh4UFcqwc/b5HCwnLx9w9ChHaIt7e3EueaNYnu7i65ciUARfpvXPSABAQ8xE0qAKBTAdgDfDcjGYMQU5CyXFhYitpKQQ3dkq+/3i5eXl6KgWtWJBITn8nBg8eQ+/9CUV6S5OR8FGwjLtqLm3bBo50AMHdjJBsbmyUpKQ+yHAunRSHqgZDrHXLo0OHZkbBaGyGHp6EkB2XnTh958CAVuWuR1tYWtaam5nmx5ubXcEQXRKFOoqLSoVKxcufOUxCJl/Png2ZHgrl579492bbNE+Yt587dhkxWQjY7cMNWqJIVddA4Z7NYGvVaFks9irpEwsKSoFYx2EPilACJvDOJ4eEhaH6B7NnjidT5Tr7//gJkMAc3oddbEerXuDkJzN0slia18vJaFQcCvn3biIAZhfv3n8nPP7Mm3CIxDpBW+fXX3yFnO8XT008uXw6FElXDU83IfwN8bS096BiUu2axWHHNJqmubpTs7DJ4P1HBm9437e7dBAkNTbQhccg5iY6ON9gln6LP2Y68Pyk//hgMTS4FYONmNTWNuGHDvBidwGuWldVKfHyuAiUBEzjTybQHD5L10yRx+PCRt0mws3z58iX096ysXLkLn9cR1gwFTe/zho6AzNZ4vVevGrBTl8LDSQqanjY8PgXelsTDhykTNbFTjh71AYkexa4kqDpBQSHy5Zdbofs/yu+/R0peXpXmKMNcVVU/b0bgTKHSUno/B5430sYeNImQFL8TfHh4KpyaqZF4i0R/fz+03lvWrt0HDb6LzjMHN6PXG1FkdQj1/Fl5uQWfFs39P/7IRMEauT4dvAH80aMUWCrAp+F3n8uTJy8mSaxf/8/pJKzWJlm9ertcuHAPHmqBZLYp+IKCKqRXtWq1AcAwe2DuWmVlvV4vISHXYc5PgZ8C/vjxCzXzO0mw612z5pvpJBobG9H3eEINYvQHg4PDKO5upFibRoRFV1j4Sq2oqGaSzExmgqf3Kyrq5fnzUgVBubT3Po3pEhGRPgmYn9ONJJ7Lb7/dkWXLvkb2nLInsR818RjFbXSF5hoaGkEv1ItN7Q3Sq0mJMEL8pFdJypkVF9cAvAWyXIc2JQ8an+jU+xERU563B0/i5venT3O1o122bIOSYPfL5ZKE7RoeHgXzPu2L6upeK4nc3EoIQCV27yqQe4VPw/i9sLAaw0yZgqDm37v3tvcJPjIyYxpo0+h1fsbF5YDcc5XgpKRCuXFjDiRs18jIKOaEAaRdD+S3Vb3OdCEhgmeknj3LV4Vh38Od1p5AZKSr1DG8Hh+fhygWoI7ylAC/zxsJ2zU6OobeahBp14c6ateo0MNMHcqnmTKmUe+deZ+E6HGCJuCkpILJT5IwIhEqK1asA4mT7tXEu67x8XH0U20TBGKnESD4qKiMaTluT8AevK1NkQiT5ctdRIJe5WLecy5gHbzramnpUPD37k2lkEnAFXimnz1wW7Ml4TKdxsbG1ZuxsSly8uQNlcOCgkoMKF1ImSH9v5kWlYwkzDowCDj3/pMnWW4RSE5+CTPSaenS1fLDDyddk4iOTpLvvruADeWynDlzE93sA9yUh13VGqH+/qHJId1c5r/NSJgk2DI4SiF3wZtGEpwxSMLDY5VzEqOjhqep7deuRWFjCcU2f187WfZTVBp6lh4pLa3RCPX3D6pajY2NqgOamtoUPEmwdXBEICbGNQFb8CaBlJQid0g80ZpgxnR28pyoXye33NwKhD0DqWU0alScR4+4OVFJ8lRWh4aGNRKjo6Pa9RL8gwcpb4E3CGQ7BG6aPYGUFCMCHAdmJHHrVpSmEy0uLgs74xNcoBBdpxVSxkOubt212TqnphaiGPNROzmSnl6MVmVICYyMjCgJthD2hWxGxFkEHIE3CbhBwoqucB/SJWQiEuPQ+aeY5vzFy+tXpNId7XXS0l4CoFV6e0moS6W0spKdbv0kieHhYackYmOzdfd1h0RqqpE6tjYjiXXr9umwMTxsnEzzkIrHIz4+N+TUqety7lywXLwYptGJjc3SFGtoaEXa9WjaDQ0NqTkjQRUygdqDN3/uigBtxnRau3YnCjhIGz5GgqlDFWL3mZKSD4VJ1v4nMDBGZZftRFxcrl60rKxed+zBwQF8DkzWhEnCVRrZgndFgGaSYAPoUGK/+upbJUGVIQmmTkhIHFQhH6CatcDZmpeU1GidsBbo3adP83DhYqRYH0jwuLFfx04Cpxm/k6OtxEwE0tKKp4G2N5JITzcisWTJMpA4YU9i2zQSlMADBy7KsWMBkNpoeDYZBV0GgM2IEHfzbi149kkcY3t6etEQ9qmRBBXIJJGYmK8g50KA9vx5meTkVCASobJwoYc9CatG4vz561oTLO7s7HI5ezYIRX0bk9RdCQiIUAmm/sfFvdBWu7a2SSPEeYMX45E9P5lO3MiYQmYXam+2BKhujkDbG0lwlgkMDJNFi5Y6I3FVc5ua39PTp4djubnlWsjcuKYmMqON4IbHC1dWNugpNuuoq4sRqtd5mCQYBVcEaI4A21tmZgkibswpM5Lo7x+YUBruwsOa4319/WgIO1DkdbhYscokwTEFWIhMqc7OLk0x7uA80WA6ch6wJ2BPgjnuCLStcU7h8MXs4L3cJsFzf+OJTg+sV41keOpNQnV1PG606HTHPDXrhIfAJMFIOOqNbAkwko5A2xojTQKcEM2JcUYSVBkWJ9PCNAKjtbfT05Rew+P8WWtrpx6s8ZP/Z5JgJLij2xKwJ+EItL3RQQYBzvXVNiScFvZV/JBe5xxtgHTHTEKmOSNhS8DsSF0ZwdtGwBh7q6FO96FOi+TwYW/Fa0Nim5Jgbnd0MGWmA3sXc4eEI9DTrRhRqFTwppEAz8CCgx++fxI8ppkriaysct2XzCjQeAzE08Pw8BhZvPiT90PCTCuesc6FBOXUPgokQCHhKSJJLFiwUA4dckKio4PPyd6dhFnw/O6IhC0BV/0Rzdj8iqdFgWnEPo4P8qOjY+Sjjz4CieOOSFwDkA6Q6HkLpCMz1YrfrdZW3Rz5nTd0RcIRcNMYhezsClUlkwDJMAo830pLy5E9e/aAxAKo01HbIxurrFnzrZw+/ase5Xd28gkoH+FOgXQGvLGxRZ8asV/iQxh+LylxHQlH4E0jiYICQ4VMEpxX2KcFB4fA2evlz39eALybILWBuqdNkqDEHjt2HqF+ic3F0GQe7RMoc91MFRO07eMumvnoit+ZTtzknj2bXT3YSmpxsUVnl6NHj6OYF8vf/rZEdu3yxCgQJi0tLUqAa5LE8eM/4yYFmrO8sZG7xdqlVlU1KHAex5iAnRlJcDeeC4miolp0AzXo056o95k+nCFOn/bF3vECPV7/BHxjTZLw9vZXWeMGw+Iye6O0NJLhQGJoN1sN43HVFHA++bElQbCzIcE2g97Pzi4F4PPw/qcg8Il8880uuX07BJnQoKOC/ZpGgl0rw8ht3pwV6B3egMRoHE7M3ZQHx3wGwdQjsZqaBvx7dpHIyqKs1qD7TZUtW7YB/McYflYhlU7gGonaDjlbkyROnPBHGF+plJGIaYZCGKRMY92QHAmxyzQJsaiLiqoVuLskMjM57LzCZ7FcvnwTwD3k44+XyPr12+Xq1etI5crJgzlna5LEf/7jDyWo1bbB/mmPLSlbsyXGfp/pQGA82bDtYG1J2A5BL15wZ66QyMgE2bfvX/KXv/xdPv10hRw8eAQt/1PtpN1Z00iYuW4+pjXIWN4yV+SYgq4OBRITGY1SeL8K3/Pl0qXr8sUXy+XDD/8O6dwqv/xyEXX3ckbv265JEmfPXpjYtNomZdRiadY8N0mZxv7ImZGEs1mCBCgYeXnVmA6T4fGj8te//g8K+AvZu/d7RCRymnS6uz7gKz70ANWAJ9+csc3Wg3NCY6OxqdkaidE4HHGD5P5g/oy14YxEZmY5UqhSbty4Kxs3bkX6/ENWrlwvZ874gliuniDOZn3AF6M8PNbKtm370ZfEIZRlIMBXPMdx0THkJcdTEprauRktq7VF6qoapaKoThrq2qS5+Y1G0tmOTfA80z1+/ByGmiUo3k/0hcWQkLuIev0EnNmtD5h7AQE3ZcWKDQitBzy0V86d85f798Nx4xyAboM28+heMDDxOR128PYesb5uleup1+RB3kVJL4kVS229tLd1a0rZkuAAlJlZAZ0Pl82bd8if/vSRblze3mfw8wyX0unu0tcieCz/7FmyXLhwWbf1xYtXoND+V1av3gqdPgnpuyIpKcn6Ypa5evsGJKosQo4Ub5ZN6Qvkj+xoaW3pREpZlQTTKT29FEQKxcfHVz7/fBWcxI1rp1y7dgOpWDtxpbmvaW/Z8JTDYqkD4DS5fj1IPD29sOkshvcWgtAmFOIP4ufnD/mLlZbXBqHSvjKJa4uW6ja+kNsLEo16QpicXCR37vwhO3bsReosgmOW6wwQHx+P2d39F3fdWW+9KmQuHtnQW76+fhohvk/x4YeLUIyLIImrsKvuQJROSWxUnHRYp0Cxdnh06ed3WZYvp/cXQP2+kd9+C8BQU6Gn5/O9nJLgYr1ERETAu/VofcP1DbSwsHCkxxn58st1iNKnEIUVsnbtRmxW+/QVu9TUNNm9+yDm4M9gyzSaERGRqKU3E1ed/+WSBE+5w8PDVWZ5HuvtfQLFzeP8HvT4NUirBMjjOVm3bitGxqVoGT6H99foWenKlZsQjV+wm+dP9v3va81I4tGjR7rphYYmYOaYeqHWXHwm8Rr1kZ6eoam3efMeyDWjch/K1jrxW+9zifwXMuX2k4SuPWQAAAAASUVORK5CYII=;fontSize=10;labelPosition=center;align=center;" vertex="1" parent="1">
          <mxGeometry x="615" y="350" width="30" height="40" as="geometry" />
        </mxCell>
        <mxCell id="-DjrFjEzPPp2w2y8W-10-38" value="로그인" style="rounded=0;whiteSpace=wrap;html=1;fillColor=#cdeb8b;strokeColor=#36393d;fontSize=10;" vertex="1" parent="1">
          <mxGeometry x="160" y="490" width="70" height="20" as="geometry" />
        </mxCell>
        <mxCell id="-DjrFjEzPPp2w2y8W-10-39" value="컴퓨트" style="rounded=0;whiteSpace=wrap;html=1;fillColor=#cdeb8b;strokeColor=#36393d;fontSize=10;" vertex="1" parent="1">
          <mxGeometry x="260" y="490" width="70" height="20" as="geometry" />
        </mxCell>
        <mxCell id="-DjrFjEzPPp2w2y8W-10-40" value="네트워크" style="rounded=0;whiteSpace=wrap;html=1;fillColor=#cdeb8b;strokeColor=#36393d;fontSize=10;" vertex="1" parent="1">
          <mxGeometry x="360" y="490" width="70" height="20" as="geometry" />
        </mxCell>
        <mxCell id="-DjrFjEzPPp2w2y8W-10-41" value="인증 &amp;amp; 권한" style="rounded=0;whiteSpace=wrap;html=1;fillColor=#cdeb8b;strokeColor=#36393d;fontSize=10;" vertex="1" parent="1">
          <mxGeometry x="460" y="490" width="70" height="20" as="geometry" />
        </mxCell>
        <mxCell id="-DjrFjEzPPp2w2y8W-10-42" value="모니터링" style="rounded=0;whiteSpace=wrap;html=1;fillColor=#cdeb8b;strokeColor=#36393d;fontSize=10;" vertex="1" parent="1">
          <mxGeometry x="560" y="490" width="70" height="20" as="geometry" />
        </mxCell>
        <mxCell id="-DjrFjEzPPp2w2y8W-10-43" value="사용이력" style="rounded=0;whiteSpace=wrap;html=1;fillColor=#cdeb8b;strokeColor=#36393d;fontSize=10;" vertex="1" parent="1">
          <mxGeometry x="660" y="490" width="70" height="20" as="geometry" />
        </mxCell>
        <mxCell id="-DjrFjEzPPp2w2y8W-10-44" value="사용자 포털" style="rounded=0;whiteSpace=wrap;html=1;fontStyle=1;fillColor=#eeeeee;strokeColor=#36393d;" vertex="1" parent="1">
          <mxGeometry x="160" y="460" width="570" height="20" as="geometry" />
        </mxCell>
        <mxCell id="-DjrFjEzPPp2w2y8W-10-45" value="보안설정" style="rounded=0;whiteSpace=wrap;html=1;fontSize=9;" vertex="1" parent="1">
          <mxGeometry x="160" y="520" width="70" height="10" as="geometry" />
        </mxCell>
        <mxCell id="-DjrFjEzPPp2w2y8W-10-47" value="로그인 차단" style="rounded=0;whiteSpace=wrap;html=1;fontSize=9;" vertex="1" parent="1">
          <mxGeometry x="160" y="540" width="70" height="10" as="geometry" />
        </mxCell>
        <mxCell id="-DjrFjEzPPp2w2y8W-10-48" value="로그인 관리" style="rounded=0;whiteSpace=wrap;html=1;fontSize=9;" vertex="1" parent="1">
          <mxGeometry x="160" y="560" width="70" height="10" as="geometry" />
        </mxCell>
        <mxCell id="-DjrFjEzPPp2w2y8W-10-49" value="활동기록" style="rounded=0;whiteSpace=wrap;html=1;fontSize=9;" vertex="1" parent="1">
          <mxGeometry x="160" y="580" width="70" height="10" as="geometry" />
        </mxCell>
        <mxCell id="-DjrFjEzPPp2w2y8W-10-50" value="서버" style="rounded=0;whiteSpace=wrap;html=1;fontSize=9;" vertex="1" parent="1">
          <mxGeometry x="260" y="520" width="70" height="10" as="geometry" />
        </mxCell>
        <mxCell id="-DjrFjEzPPp2w2y8W-10-51" value="GPU서버" style="rounded=0;whiteSpace=wrap;html=1;fontSize=9;" vertex="1" parent="1">
          <mxGeometry x="260" y="540" width="70" height="10" as="geometry" />
        </mxCell>
        <mxCell id="-DjrFjEzPPp2w2y8W-10-52" value="볼륨" style="rounded=0;whiteSpace=wrap;html=1;fontSize=9;" vertex="1" parent="1">
          <mxGeometry x="260" y="560" width="70" height="10" as="geometry" />
        </mxCell>
        <mxCell id="-DjrFjEzPPp2w2y8W-10-53" value="스냅샷" style="rounded=0;whiteSpace=wrap;html=1;fontSize=9;" vertex="1" parent="1">
          <mxGeometry x="260" y="580" width="70" height="10" as="geometry" />
        </mxCell>
        <mxCell id="-DjrFjEzPPp2w2y8W-10-54" value="템플릿" style="rounded=0;whiteSpace=wrap;html=1;fontSize=9;" vertex="1" parent="1">
          <mxGeometry x="260" y="600" width="70" height="10" as="geometry" />
        </mxCell>
        <mxCell id="-DjrFjEzPPp2w2y8W-10-55" value="&lt;font style=&quot;font-size: 9px;&quot;&gt;스냅샷 스케쥴링&lt;/font&gt;" style="rounded=0;whiteSpace=wrap;html=1;fontSize=9;" vertex="1" parent="1">
          <mxGeometry x="260" y="620" width="70" height="10" as="geometry" />
        </mxCell>
        <mxCell id="-DjrFjEzPPp2w2y8W-10-56" value="서브넷" style="rounded=0;whiteSpace=wrap;html=1;fontSize=9;" vertex="1" parent="1">
          <mxGeometry x="360" y="520" width="70" height="10" as="geometry" />
        </mxCell>
        <mxCell id="-DjrFjEzPPp2w2y8W-10-57" value="적응형IP" style="rounded=0;whiteSpace=wrap;html=1;fontSize=9;" vertex="1" parent="1">
          <mxGeometry x="360" y="540" width="70" height="10" as="geometry" />
        </mxCell>
        <mxCell id="-DjrFjEzPPp2w2y8W-10-58" value="포트포워딩" style="rounded=0;whiteSpace=wrap;html=1;fontSize=9;" vertex="1" parent="1">
          <mxGeometry x="360" y="560" width="70" height="10" as="geometry" />
        </mxCell>
        <mxCell id="-DjrFjEzPPp2w2y8W-10-59" value="로드밸런싱" style="rounded=0;whiteSpace=wrap;html=1;fontSize=9;" vertex="1" parent="1">
          <mxGeometry x="360" y="580" width="70" height="10" as="geometry" />
        </mxCell>
        <mxCell id="-DjrFjEzPPp2w2y8W-10-60" value="오토스케일링" style="rounded=0;whiteSpace=wrap;html=1;fontSize=9;" vertex="1" parent="1">
          <mxGeometry x="360" y="600" width="70" height="10" as="geometry" />
        </mxCell>
        <mxCell id="-DjrFjEzPPp2w2y8W-10-61" value="역할" style="rounded=0;whiteSpace=wrap;html=1;fontSize=9;" vertex="1" parent="1">
          <mxGeometry x="460" y="520" width="70" height="10" as="geometry" />
        </mxCell>
        <mxCell id="-DjrFjEzPPp2w2y8W-10-62" value="사용자" style="rounded=0;whiteSpace=wrap;html=1;fontSize=9;" vertex="1" parent="1">
          <mxGeometry x="460" y="540" width="70" height="10" as="geometry" />
        </mxCell>
        <mxCell id="-DjrFjEzPPp2w2y8W-10-63" value="보안그룹" style="rounded=0;whiteSpace=wrap;html=1;fontSize=9;" vertex="1" parent="1">
          <mxGeometry x="460" y="560" width="70" height="10" as="geometry" />
        </mxCell>
        <mxCell id="-DjrFjEzPPp2w2y8W-10-64" value="대시보드" style="rounded=0;whiteSpace=wrap;html=1;fontSize=9;" vertex="1" parent="1">
          <mxGeometry x="560" y="520" width="70" height="10" as="geometry" />
        </mxCell>
        <mxCell id="-DjrFjEzPPp2w2y8W-10-65" value="토폴로지" style="rounded=0;whiteSpace=wrap;html=1;fontSize=9;" vertex="1" parent="1">
          <mxGeometry x="560" y="540" width="70" height="10" as="geometry" />
        </mxCell>
        <mxCell id="-DjrFjEzPPp2w2y8W-10-66" value="컴퓨트" style="rounded=0;whiteSpace=wrap;html=1;fontSize=9;" vertex="1" parent="1">
          <mxGeometry x="660" y="520" width="70" height="10" as="geometry" />
        </mxCell>
        <mxCell id="-DjrFjEzPPp2w2y8W-10-67" value="네트워크" style="rounded=0;whiteSpace=wrap;html=1;fontSize=9;" vertex="1" parent="1">
          <mxGeometry x="660" y="540" width="70" height="10" as="geometry" />
        </mxCell>
        <mxCell id="-DjrFjEzPPp2w2y8W-10-68" value="인증 &amp;amp; 권한" style="rounded=0;whiteSpace=wrap;html=1;fontSize=9;" vertex="1" parent="1">
          <mxGeometry x="660" y="560" width="70" height="10" as="geometry" />
        </mxCell>
        <mxCell id="-DjrFjEzPPp2w2y8W-10-69" value="액션" style="rounded=0;whiteSpace=wrap;html=1;fontSize=9;" vertex="1" parent="1">
          <mxGeometry x="660" y="580" width="70" height="10" as="geometry" />
        </mxCell>
        <mxCell id="-DjrFjEzPPp2w2y8W-10-70" value="관리자 포털" style="rounded=0;whiteSpace=wrap;html=1;fontStyle=1;fillColor=#eeeeee;strokeColor=#36393d;" vertex="1" parent="1">
          <mxGeometry x="160" y="640" width="570" height="20" as="geometry" />
        </mxCell>
        <mxCell id="-DjrFjEzPPp2w2y8W-10-93" value="환경 설정" style="rounded=0;whiteSpace=wrap;html=1;fillColor=#cdeb8b;strokeColor=#36393d;fontSize=10;" vertex="1" parent="1">
          <mxGeometry x="670.4477611940299" y="670" width="59.55223880597015" height="20" as="geometry" />
        </mxCell>
        <mxCell id="-DjrFjEzPPp2w2y8W-10-94" value="사이트" style="rounded=0;whiteSpace=wrap;html=1;fontSize=10;" vertex="1" parent="1">
          <mxGeometry x="670.4477611940299" y="700" width="59.55223880597015" height="10" as="geometry" />
        </mxCell>
        <mxCell id="-DjrFjEzPPp2w2y8W-10-95" value="시스템" style="rounded=0;whiteSpace=wrap;html=1;fontSize=10;" vertex="1" parent="1">
          <mxGeometry x="670.4477611940299" y="720" width="59.55223880597015" height="10" as="geometry" />
        </mxCell>
        <mxCell id="-DjrFjEzPPp2w2y8W-10-71" value="대시보드" style="rounded=0;whiteSpace=wrap;html=1;fillColor=#cdeb8b;strokeColor=#36393d;fontSize=10;" vertex="1" parent="1">
          <mxGeometry x="160" y="670" width="59.55223880597015" height="20" as="geometry" />
        </mxCell>
        <mxCell id="-DjrFjEzPPp2w2y8W-10-72" value="자원" style="rounded=0;whiteSpace=wrap;html=1;fillColor=#cdeb8b;strokeColor=#36393d;fontSize=10;" vertex="1" parent="1">
          <mxGeometry x="245.07462686567163" y="670" width="59.55223880597015" height="20" as="geometry" />
        </mxCell>
        <mxCell id="-DjrFjEzPPp2w2y8W-10-73" value="사용 이력" style="rounded=0;whiteSpace=wrap;html=1;fillColor=#cdeb8b;strokeColor=#36393d;fontSize=10;" vertex="1" parent="1">
          <mxGeometry x="330.14925373134326" y="670" width="59.55223880597015" height="20" as="geometry" />
        </mxCell>
        <mxCell id="-DjrFjEzPPp2w2y8W-10-74" value="빌링" style="rounded=0;whiteSpace=wrap;html=1;fillColor=#cdeb8b;strokeColor=#36393d;fontSize=10;" vertex="1" parent="1">
          <mxGeometry x="415.22388059701495" y="670" width="59.55223880597015" height="20" as="geometry" />
        </mxCell>
        <mxCell id="-DjrFjEzPPp2w2y8W-10-75" value="자산" style="rounded=0;whiteSpace=wrap;html=1;fillColor=#cdeb8b;strokeColor=#36393d;fontSize=10;" vertex="1" parent="1">
          <mxGeometry x="500.2985074626866" y="670" width="59.55223880597015" height="20" as="geometry" />
        </mxCell>
        <mxCell id="-DjrFjEzPPp2w2y8W-10-76" value="멤버" style="rounded=0;whiteSpace=wrap;html=1;fillColor=#cdeb8b;strokeColor=#36393d;fontSize=10;" vertex="1" parent="1">
          <mxGeometry x="585.3731343283582" y="670" width="59.55223880597015" height="20" as="geometry" />
        </mxCell>
        <mxCell id="-DjrFjEzPPp2w2y8W-10-77" value="가상자원" style="rounded=0;whiteSpace=wrap;html=1;fontSize=10;" vertex="1" parent="1">
          <mxGeometry x="160" y="700" width="59.55223880597015" height="10" as="geometry" />
        </mxCell>
        <mxCell id="-DjrFjEzPPp2w2y8W-10-78" value="컴퓨트" style="rounded=0;whiteSpace=wrap;html=1;fontSize=10;" vertex="1" parent="1">
          <mxGeometry x="245.07462686567163" y="700" width="59.55223880597015" height="10" as="geometry" />
        </mxCell>
        <mxCell id="-DjrFjEzPPp2w2y8W-10-80" value="가격 정책" style="rounded=0;whiteSpace=wrap;html=1;fontSize=10;" vertex="1" parent="1">
          <mxGeometry x="415.22388059701495" y="700" width="59.55223880597015" height="10" as="geometry" />
        </mxCell>
        <mxCell id="-DjrFjEzPPp2w2y8W-10-81" value="컴퓨트서비스" style="rounded=0;whiteSpace=wrap;html=1;fontSize=10;" vertex="1" parent="1">
          <mxGeometry x="500.2985074626866" y="700" width="59.55223880597015" height="10" as="geometry" />
        </mxCell>
        <mxCell id="-DjrFjEzPPp2w2y8W-10-82" value="테넌트" style="rounded=0;whiteSpace=wrap;html=1;fontSize=10;" vertex="1" parent="1">
          <mxGeometry x="585.3731343283582" y="700" width="59.55223880597015" height="10" as="geometry" />
        </mxCell>
        <mxCell id="-DjrFjEzPPp2w2y8W-10-83" value="물리자산" style="rounded=0;whiteSpace=wrap;html=1;fontSize=10;" vertex="1" parent="1">
          <mxGeometry x="160" y="720" width="59.55223880597015" height="10" as="geometry" />
        </mxCell>
        <mxCell id="-DjrFjEzPPp2w2y8W-10-84" value="네트워크" style="rounded=0;whiteSpace=wrap;html=1;fontSize=10;" vertex="1" parent="1">
          <mxGeometry x="245.07462686567163" y="720" width="59.55223880597015" height="10" as="geometry" />
        </mxCell>
        <mxCell id="-DjrFjEzPPp2w2y8W-10-86" value="고객" style="rounded=0;whiteSpace=wrap;html=1;fontSize=10;" vertex="1" parent="1">
          <mxGeometry x="415.22388059701495" y="720" width="59.55223880597015" height="10" as="geometry" />
        </mxCell>
        <mxCell id="-DjrFjEzPPp2w2y8W-10-87" value="&lt;font style=&quot;font-size: 9px;&quot;&gt;네트워크서비스&lt;/font&gt;" style="rounded=0;whiteSpace=wrap;html=1;fontSize=10;" vertex="1" parent="1">
          <mxGeometry x="500.2985074626866" y="720" width="59.55223880597015" height="10" as="geometry" />
        </mxCell>
        <mxCell id="-DjrFjEzPPp2w2y8W-10-88" value="관리자" style="rounded=0;whiteSpace=wrap;html=1;fontSize=10;" vertex="1" parent="1">
          <mxGeometry x="585.3731343283582" y="720" width="59.55223880597015" height="10" as="geometry" />
        </mxCell>
        <mxCell id="-DjrFjEzPPp2w2y8W-10-103" value="서버 사양" style="rounded=0;whiteSpace=wrap;html=1;fontSize=10;" vertex="1" parent="1">
          <mxGeometry x="670.4477611940299" y="740" width="59.55223880597015" height="10" as="geometry" />
        </mxCell>
        <mxCell id="-DjrFjEzPPp2w2y8W-10-104" value="자원 제한" style="rounded=0;whiteSpace=wrap;html=1;fontSize=10;" vertex="1" parent="1">
          <mxGeometry x="670.4477611940299" y="760" width="59.55223880597015" height="10" as="geometry" />
        </mxCell>
        <mxCell id="-DjrFjEzPPp2w2y8W-10-105" value="클래스" style="rounded=0;whiteSpace=wrap;html=1;fontSize=10;" vertex="1" parent="1">
          <mxGeometry x="670.4477611940299" y="800" width="59.55223880597015" height="10" as="geometry" />
        </mxCell>
        <mxCell id="-DjrFjEzPPp2w2y8W-10-106" value="자원 생성" style="rounded=0;whiteSpace=wrap;html=1;fontSize=10;" vertex="1" parent="1">
          <mxGeometry x="670.4477611940299" y="780" width="59.55223880597015" height="10" as="geometry" />
        </mxCell>
        <mxCell id="-DjrFjEzPPp2w2y8W-10-107" value="웹 서비스" style="rounded=0;whiteSpace=wrap;html=1;fontSize=10;" vertex="1" parent="1">
          <mxGeometry x="499.9977611940299" y="740" width="59.55223880597015" height="10" as="geometry" />
        </mxCell>
        <mxCell id="-DjrFjEzPPp2w2y8W-10-108" value="IP풀" style="rounded=0;whiteSpace=wrap;html=1;fontSize=10;" vertex="1" parent="1">
          <mxGeometry x="499.9977611940299" y="760" width="59.55223880597015" height="10" as="geometry" />
        </mxCell>
        <mxCell id="-DjrFjEzPPp2w2y8W-10-109" value="ISO" style="rounded=0;whiteSpace=wrap;html=1;fontSize=10;" vertex="1" parent="1">
          <mxGeometry x="499.9977611940299" y="800" width="59.55223880597015" height="10" as="geometry" />
        </mxCell>
        <mxCell id="-DjrFjEzPPp2w2y8W-10-110" value="템플릿" style="rounded=0;whiteSpace=wrap;html=1;fontSize=10;" vertex="1" parent="1">
          <mxGeometry x="499.9977611940299" y="780" width="59.55223880597015" height="10" as="geometry" />
        </mxCell>
        <mxCell id="-DjrFjEzPPp2w2y8W-10-111" value="VLAN" style="rounded=0;whiteSpace=wrap;html=1;fontSize=10;" vertex="1" parent="1">
          <mxGeometry x="499.9977611940299" y="820" width="59.55223880597015" height="10" as="geometry" />
        </mxCell>
        <mxCell id="-DjrFjEzPPp2w2y8W-10-112" value="GPU" style="rounded=0;whiteSpace=wrap;html=1;fontSize=10;" vertex="1" parent="1">
          <mxGeometry x="499.9977611940299" y="860" width="59.55223880597015" height="10" as="geometry" />
        </mxCell>
        <mxCell id="-DjrFjEzPPp2w2y8W-10-113" value="소프트웨어" style="rounded=0;whiteSpace=wrap;html=1;fontSize=10;" vertex="1" parent="1">
          <mxGeometry x="499.9977611940299" y="840" width="59.55223880597015" height="10" as="geometry" />
        </mxCell>
        <mxCell id="-DjrFjEzPPp2w2y8W-10-114" value="청구서" style="rounded=0;whiteSpace=wrap;html=1;fontSize=10;" vertex="1" parent="1">
          <mxGeometry x="415.22388059701495" y="740" width="59.55223880597015" height="10" as="geometry" />
        </mxCell>
        <mxCell id="-DjrFjEzPPp2w2y8W-10-116" value="인증 &amp;amp; 권한" style="rounded=0;whiteSpace=wrap;html=1;fontSize=10;" vertex="1" parent="1">
          <mxGeometry x="245.07462686567163" y="740" width="59.55223880597015" height="10" as="geometry" />
        </mxCell>
        <mxCell id="-DjrFjEzPPp2w2y8W-10-117" value="액션" style="rounded=0;whiteSpace=wrap;html=1;fontSize=10;" vertex="1" parent="1">
          <mxGeometry x="330.14925373134326" y="760" width="59.55223880597015" height="10" as="geometry" />
        </mxCell>
        <mxCell id="-DjrFjEzPPp2w2y8W-10-118" value="컴퓨트" style="rounded=0;whiteSpace=wrap;html=1;fontSize=10;" vertex="1" parent="1">
          <mxGeometry x="330.00462686567164" y="700" width="59.55223880597015" height="10" as="geometry" />
        </mxCell>
        <mxCell id="-DjrFjEzPPp2w2y8W-10-119" value="네트워크" style="rounded=0;whiteSpace=wrap;html=1;fontSize=10;" vertex="1" parent="1">
          <mxGeometry x="330.00462686567164" y="720" width="59.55223880597015" height="10" as="geometry" />
        </mxCell>
        <mxCell id="-DjrFjEzPPp2w2y8W-10-120" value="인증 &amp;amp; 권한" style="rounded=0;whiteSpace=wrap;html=1;fontSize=10;" vertex="1" parent="1">
          <mxGeometry x="330.00462686567164" y="740" width="59.55223880597015" height="10" as="geometry" />
        </mxCell>
      </root>
    </mxGraphModel>
  </diagram>
</mxfile>
